<svg width="21" height="22" viewBox="0 0 21 22" fill="none" xmlns="http://www.w3.org/2000/svg">
<path d="M5.15839 1.0001H18.0277C19.1026 1.0001 19.982 1.9001 19.982 3.0001V16.1701L18.0277 14.1701V3.0001H7.11273L5.15839 1.0001ZM19.4837 21.3101L17.2167 19.0001H4.34734C3.27245 19.0001 2.393 18.1001 2.393 17.0001V3.8301L0.135742 1.5101L1.51355 0.100098L2.96953 1.5901L4.34734 3.0001L12.2722 11.1101L14.9008 13.8001L18.0277 17.0001L19.4055 18.4101L20.8615 19.9001L19.4837 21.3101ZM15.2623 17.0001L13.308 15.0001H5.32451L8.25602 11.0001L10.2104 13.7201L11.0312 12.6701L4.34734 5.8301V17.0001H15.2623Z" fill="#C4C4C4"/>
</svg>
