<svg width="168" height="42" viewBox="0 0 168 42" fill="none" xmlns="http://www.w3.org/2000/svg">
<rect y="0.994263" width="167.47" height="40.0115" rx="20" fill="white"/>
<path d="M28.0706 10.4116V18.7602H25.9215V12.6013H22.149V18.7602H20V10.4116H28.0706Z" fill="#001B71"/>
<path d="M38.8626 12.7876C39.1097 13.3517 39.2323 13.9587 39.2225 14.5704C39.2326 15.1821 39.11 15.7892 38.8626 16.3532C38.6347 16.8689 38.3046 17.3373 37.8906 17.7326C37.4886 18.1221 37.012 18.4335 36.4867 18.6499C35.962 18.8639 35.3976 18.9741 34.8273 18.9741C34.2598 18.9881 33.6963 18.8797 33.1786 18.6568C32.7886 18.5071 32.4679 18.2281 32.2751 17.8706V22.2122H30.1152V10.4116H32.1959V11.2875C32.3945 10.9279 32.7216 10.6487 33.1174 10.5012C33.642 10.2802 34.2112 10.1731 34.7841 10.1874C35.3617 10.1851 35.9341 10.2918 36.4687 10.5012C37.0014 10.7091 37.485 11.0176 37.8906 11.4082C38.3031 11.8047 38.633 12.2728 38.8626 12.7876ZM36.8755 15.4773C37.001 15.1926 37.0646 14.8864 37.0627 14.5773C37.0654 14.2715 37.0017 13.9685 36.8755 13.6876C36.7569 13.4254 36.5814 13.1903 36.3607 12.9979C36.1308 12.7957 35.86 12.6408 35.5652 12.5427C35.2357 12.432 34.8885 12.3772 34.5393 12.3806C34.0394 12.3714 33.5449 12.4804 33.0994 12.6979C32.7368 12.8557 32.4445 13.1319 32.2751 13.4772V15.698C32.4455 16.0447 32.7389 16.3221 33.103 16.4808C33.5478 16.7 34.0428 16.8091 34.5429 16.7981C34.8922 16.8032 35.2397 16.7483 35.5688 16.636C35.8628 16.5378 36.1333 16.3842 36.3643 16.1843C36.5858 15.9859 36.7612 15.745 36.8791 15.4773" fill="#001B71"/>
<path d="M42.8654 10.4116V15.4222L46.8071 10.4116H48.9561V18.7602H46.8395V13.7497L42.8978 18.7602H40.7488V10.4116H42.8654Z" fill="#001B71"/>
<path d="M59.6834 14.5945C59.6944 15.1985 59.5717 15.7979 59.3234 16.3532C59.0847 16.8708 58.7437 17.3392 58.3191 17.7326C57.89 18.1242 57.3882 18.4353 56.8396 18.6499C55.7123 19.0959 54.4464 19.0959 53.3191 18.6499C52.7764 18.4358 52.2806 18.1258 51.8576 17.736C51.4308 17.3437 51.0884 16.8751 50.8497 16.3567C50.6013 15.8014 50.4787 15.202 50.4897 14.598C50.4804 13.9963 50.6031 13.3995 50.8497 12.8462C51.3277 11.7944 52.2129 10.9612 53.3191 10.5219C54.4473 10.0803 55.7113 10.0803 56.8396 10.5219C57.9477 10.9585 58.8338 11.7925 59.309 12.8462C59.5555 13.3996 59.6781 13.9963 59.669 14.598L59.6834 14.5945ZM52.8295 13.6979C52.7041 13.9827 52.6404 14.2889 52.6423 14.598C52.6396 14.9038 52.7034 15.2068 52.8295 15.4877C52.9496 15.7491 53.1248 15.984 53.3443 16.1773C53.5717 16.3749 53.837 16.5284 54.1254 16.6291C54.4301 16.7394 54.7536 16.7944 55.0793 16.7912C55.4028 16.795 55.724 16.74 56.0261 16.6291C56.3108 16.5274 56.5724 16.374 56.7964 16.1773C57.0171 15.9827 57.1957 15.7484 57.322 15.4877C57.4539 15.2083 57.5202 14.9046 57.5163 14.598C57.5194 14.2881 57.4531 13.9812 57.322 13.6979C57.1971 13.4364 57.0184 13.2018 56.7964 13.0082C56.5735 12.8093 56.3117 12.6546 56.0261 12.553C55.7236 12.4438 55.4026 12.3888 55.0793 12.391C54.7538 12.3894 54.4306 12.4444 54.1254 12.553C53.8361 12.6537 53.5706 12.8084 53.3443 13.0082C53.1235 13.2005 52.948 13.4356 52.8295 13.6979Z" fill="#001B71"/>
<path d="M69.9065 12.7875C70.1522 13.3521 70.2747 13.9588 70.2665 14.5704C70.2747 15.182 70.1522 15.7887 69.9065 16.3532C69.676 16.8684 69.3449 17.3366 68.931 17.7326C68.5271 18.1247 68.0463 18.4364 67.5163 18.6499C66.9928 18.8638 66.4295 18.9741 65.8604 18.9741C65.2929 18.9888 64.7293 18.8804 64.2117 18.6568C63.8215 18.5063 63.4999 18.2275 63.3046 17.8706V22.2121H61.1448V10.4116H63.2254V11.2875C63.424 10.9278 63.7511 10.6487 64.1469 10.5012C64.6717 10.2807 65.2407 10.1735 65.8136 10.1874C66.3912 10.1851 66.9636 10.2918 67.4983 10.5012C68.0357 10.7062 68.5234 11.0149 68.931 11.4082C69.3432 11.8055 69.6741 12.2734 69.9065 12.7875ZM67.9158 15.4704C68.043 15.1862 68.1067 14.8796 68.103 14.5704C68.1075 14.2644 68.0437 13.9611 67.9158 13.6807C67.7972 13.4185 67.6217 13.1834 67.4011 12.991C67.1711 12.7888 66.9004 12.6339 66.6055 12.5358C66.2772 12.4254 65.9312 12.3705 65.5832 12.3737C65.0834 12.3647 64.5888 12.4736 64.1433 12.691C63.7788 12.8508 63.4854 13.1295 63.3154 13.4772V15.698C63.4869 16.044 63.78 16.3211 64.1433 16.4808C64.5882 16.6998 65.0832 16.8089 65.5832 16.7981C65.9314 16.803 66.2776 16.7481 66.6055 16.636C66.8995 16.5378 67.17 16.3842 67.4011 16.1843C67.6226 15.9858 67.798 15.745 67.9158 15.4773" fill="#001B71"/>
<path d="M73.9023 10.4116V15.4222L77.844 10.4116H79.993V18.7602H77.8764V13.7497L73.9347 18.7602H71.7856V10.4116H73.9023Z" fill="#001B71"/>
<path d="M88.9491 12.6013H86.2601V18.7602H84.1111V12.6013H81.4221V10.4116H88.9491V12.6013Z" fill="#001B71"/>
<path d="M94.6546 16.9257C95.1871 16.928 95.7151 16.832 96.2097 16.6429C96.6475 16.4949 97.0346 16.2349 97.3292 15.8912L97.988 17.4809C97.6709 17.9522 97.2218 18.3287 96.6921 18.5672C96.0357 18.8684 95.3137 19.015 94.5863 18.9948C93.9549 19.0005 93.3278 18.8953 92.736 18.6844C92.1854 18.4922 91.6809 18.1955 91.2529 17.812C90.8292 17.423 90.4956 16.953 90.2738 16.4326C90.027 15.8515 89.9046 15.2288 89.9138 14.6014C89.9106 14.0258 90.0167 13.4544 90.227 12.9152C90.4287 12.3974 90.7331 11.922 91.1233 11.5151C91.5177 11.1049 91.9954 10.7763 92.5272 10.5495C93.1122 10.3086 93.7445 10.191 94.3811 10.2047C94.984 10.1912 95.5822 10.3091 96.1305 10.5495C96.6411 10.7834 97.0967 11.1143 97.4696 11.522C97.8391 11.9374 98.128 12.4127 98.3228 12.9255C98.5267 13.4602 98.6303 14.0253 98.6287 14.5946C98.6287 14.7118 98.6287 14.8394 98.6287 14.9739C98.6274 15.09 98.6129 15.2056 98.5855 15.3187H92.1168C92.1511 15.5692 92.2453 15.8088 92.392 16.0187C92.5387 16.2287 92.734 16.4034 92.9628 16.5291C93.4824 16.7951 94.0658 16.9259 94.6546 16.9085V16.9257ZM96.4329 13.6359C96.4074 13.4289 96.3332 13.2301 96.216 13.0545C96.0988 12.8789 95.9416 12.7311 95.7562 12.622C95.3429 12.3837 94.8669 12.264 94.3847 12.2772C93.8871 12.2684 93.3961 12.3875 92.9628 12.622C92.7648 12.7255 92.5937 12.8704 92.4622 13.0459C92.3307 13.2214 92.2422 13.4231 92.2032 13.6359H96.4329Z" fill="#001B71"/>
<path d="M107.128 12.6013H104.435V18.7602H102.286V12.6013H99.5969V10.4116H107.128V12.6013Z" fill="#001B71"/>
<path d="M111.318 12.122C111.119 12.1204 110.922 12.1519 110.735 12.2151C110.561 12.2743 110.398 12.3568 110.249 12.4599C110.102 12.5583 109.969 12.6742 109.853 12.8048C109.735 12.9351 109.632 13.076 109.543 13.2255L108.773 11.9668C108.839 11.7191 108.952 11.4852 109.107 11.2771C109.271 11.062 109.469 10.8734 109.694 10.7185C109.938 10.5546 110.206 10.4278 110.49 10.3426C110.805 10.2452 111.134 10.1975 111.465 10.2012C111.877 10.194 112.286 10.2607 112.671 10.3978C113.001 10.5202 113.3 10.7069 113.55 10.9461C113.784 11.1801 113.966 11.4584 114.082 11.7634C114.206 12.0845 114.269 12.4245 114.266 12.7669C114.269 13.0484 114.233 13.3291 114.158 13.6014C114.081 13.8601 113.973 14.109 113.834 14.3428C113.681 14.6022 113.504 14.848 113.305 15.0773C113.092 15.3256 112.851 15.598 112.585 15.8946L111.706 16.8395H114.446V18.7534H108.834V17.2705L111.332 14.6704L111.793 14.1876C111.911 14.0608 112.019 13.9259 112.117 13.7841C112.197 13.668 112.262 13.5429 112.311 13.4117C112.359 13.2822 112.382 13.1456 112.38 13.0082C112.381 12.8895 112.356 12.7719 112.306 12.6631C112.257 12.5543 112.184 12.4568 112.092 12.3772C111.879 12.1981 111.601 12.1065 111.318 12.122Z" fill="#EA0029"/>
<path d="M118.15 10.5288C119.285 10.1012 120.546 10.1012 121.681 10.5288C122.226 10.7376 122.725 11.0443 123.15 11.4323C123.574 11.8248 123.913 12.2935 124.147 12.8117C124.392 13.3716 124.515 13.9737 124.507 14.5808C124.516 15.189 124.393 15.7925 124.147 16.3533C123.917 16.8742 123.58 17.3457 123.156 17.7401C122.733 18.1345 122.231 18.4438 121.681 18.6499C120.547 19.082 119.284 19.082 118.15 18.6499C117.602 18.4445 117.102 18.137 116.68 17.7451C116.257 17.3532 115.92 16.8848 115.688 16.3671C115.44 15.8067 115.317 15.203 115.328 14.5946C115.318 13.9873 115.441 13.3849 115.688 12.8255C115.921 12.3066 116.26 11.8376 116.685 11.4461C117.108 11.0574 117.605 10.7506 118.15 10.5426V10.5288ZM119.917 17.0602C120.278 17.0621 120.635 17.0002 120.972 16.8774C121.29 16.7656 121.581 16.5944 121.829 16.3739C122.071 16.1562 122.265 15.8933 122.398 15.6015C122.539 15.2856 122.61 14.9451 122.606 14.6014C122.608 14.2591 122.537 13.9199 122.398 13.6048C122.265 13.3109 122.071 13.0458 121.829 12.8255C121.579 12.6074 121.288 12.4366 120.972 12.322C120.287 12.0829 119.537 12.0829 118.852 12.322C118.539 12.4383 118.251 12.609 118.002 12.8255C117.761 13.0466 117.567 13.3115 117.434 13.6048C117.295 13.9202 117.225 14.2593 117.228 14.6014C117.224 14.9448 117.294 15.2854 117.434 15.6015C117.568 15.8927 117.761 16.1553 118.002 16.3739C118.249 16.5929 118.537 16.7639 118.852 16.8774C119.197 17.0028 119.563 17.0648 119.932 17.0602" fill="#EA0029"/>
<path d="M127.563 17.0533C127.901 17.0687 128.235 16.9739 128.51 16.7843C128.626 16.7 128.719 16.5902 128.782 16.4642C128.844 16.3382 128.875 16.1996 128.87 16.0601C128.874 15.9355 128.847 15.8116 128.791 15.6989C128.736 15.5862 128.653 15.4878 128.549 15.4118C128.295 15.2422 127.988 15.1585 127.678 15.1739C127.458 15.1705 127.239 15.1972 127.027 15.2532C126.881 15.2915 126.743 15.3508 126.616 15.429L126.314 14.1221L127.811 12.3254H125.4V10.4116H130.285V11.7909L128.798 13.5427C129.029 13.5948 129.253 13.6747 129.464 13.7807C129.702 13.9002 129.918 14.0577 130.101 14.2462C130.309 14.467 130.473 14.7232 130.583 15.0014C130.717 15.3524 130.781 15.7245 130.77 16.098C130.772 16.4819 130.697 16.8625 130.547 17.2188C130.4 17.5631 130.179 17.8743 129.899 18.1326C129.61 18.4017 129.267 18.6127 128.891 18.7534C128.469 18.9099 128.019 18.9871 127.567 18.9809C127.234 18.9835 126.902 18.944 126.58 18.8637C126.311 18.7936 126.054 18.6892 125.814 18.5533C125.61 18.4388 125.426 18.2959 125.266 18.1292C125.131 17.9898 125.023 17.8272 124.95 17.6498L125.389 16.1084C125.629 16.3885 125.922 16.6226 126.253 16.7981C126.659 16.9955 127.111 17.0904 127.567 17.074" fill="#EA0029"/>
<path d="M134.471 10.5288C135.606 10.1012 136.868 10.1012 138.003 10.5288C138.548 10.7376 139.046 11.0443 139.471 11.4323C139.894 11.8249 140.232 12.2937 140.465 12.8117C140.711 13.3711 140.834 13.9735 140.825 14.5808C140.835 15.1892 140.712 15.7929 140.465 16.3533C140.231 16.871 139.894 17.3397 139.471 17.7326C139.047 18.1273 138.547 18.4389 137.999 18.6499C136.866 19.0811 135.604 19.0811 134.471 18.6499C133.923 18.4445 133.424 18.137 133.001 17.7451C132.578 17.3532 132.241 16.8848 132.009 16.367C131.761 15.8067 131.639 15.203 131.649 14.5945C131.64 13.9873 131.762 13.3849 132.009 12.8255C132.242 12.3066 132.581 11.8376 133.006 11.4461C133.428 11.0525 133.926 10.741 134.471 10.5288ZM136.239 17.0464C136.599 17.0483 136.957 16.9864 137.293 16.8636C137.611 16.7518 137.902 16.5806 138.15 16.3602C138.393 16.1424 138.586 15.8795 138.719 15.5877C138.86 15.2718 138.931 14.9313 138.928 14.5877C138.93 14.2453 138.859 13.9061 138.719 13.5911C138.586 13.2971 138.393 13.032 138.15 12.8117C137.9 12.5936 137.61 12.4228 137.293 12.3082C136.609 12.0692 135.858 12.0692 135.173 12.3082C134.86 12.4245 134.572 12.5952 134.324 12.8117C134.081 13.0325 133.886 13.2974 133.751 13.5911C133.613 13.9064 133.543 14.2455 133.546 14.5877C133.541 14.931 133.611 15.2716 133.751 15.5877C133.885 15.8789 134.079 16.1415 134.32 16.3602C134.566 16.5791 134.855 16.7501 135.17 16.8636C135.514 16.989 135.881 17.051 136.249 17.0464" fill="#EA0029"/>
<path d="M145.458 8.99426H143.712L141.699 12.3324H143.442L145.458 8.99426Z" fill="#EA0029"/>
<path d="M143.712 8.99426H145.458L147.47 12.3324H145.727L143.712 8.99426Z" fill="#EA0029"/>
<path d="M26.2133 27.1469V29.6263L28.1643 27.1469H29.2299V31.2815H28.1823V28.8021L26.2277 31.2815H25.1658V27.1469H26.2133Z" fill="#EA0029"/>
<path d="M30.3277 30.1987C30.4141 30.0539 30.5005 29.8884 30.5869 29.709C30.6702 29.511 30.7411 29.3083 30.7993 29.1021C30.8677 28.8664 30.9206 28.6269 30.9577 28.3848C30.9978 28.1107 31.017 27.8341 31.0153 27.5572V27.1469H34.147V30.1987H34.759V32.3816H33.7186V31.2815H30.9145V32.3816H29.8813V30.1987H30.3277ZM33.0815 30.1987V28.2297H31.9836C31.9471 28.6254 31.8711 29.0168 31.7568 29.3987C31.6734 29.6739 31.5649 29.9416 31.4328 30.1987H33.0815Z" fill="#EA0029"/>
<path d="M37.5486 30.3746C37.8122 30.3759 38.0737 30.329 38.319 30.2367C38.5345 30.161 38.7247 30.0312 38.8697 29.8608L39.1973 30.6505C39.0421 30.8842 38.8195 31.0698 38.5566 31.185C38.2319 31.3368 37.8738 31.4113 37.5126 31.4022C37.2007 31.4063 36.8906 31.3549 36.5983 31.2505C36.3295 31.155 36.0843 31.007 35.8784 30.816C35.6658 30.6228 35.4999 30.3874 35.3924 30.1263C35.165 29.5675 35.1573 28.9486 35.3708 28.3848C35.471 28.1292 35.6227 27.8948 35.8172 27.6952C36.0118 27.4921 36.2484 27.33 36.5119 27.2193C36.8012 27.0982 37.1142 27.0382 37.4298 27.0434C37.7193 27.0402 38.006 27.0978 38.2697 27.2122C38.5334 27.3266 38.7677 27.495 38.9561 27.7055C39.141 27.9082 39.2851 28.1421 39.3809 28.3952C39.4822 28.6603 39.5334 28.9405 39.5321 29.2228C39.5321 29.2814 39.5321 29.3435 39.5321 29.409C39.5326 29.467 39.5265 29.5248 39.5141 29.5815H36.2923C36.3094 29.7054 36.3559 29.8239 36.4283 29.928C36.5007 30.032 36.597 30.1187 36.7099 30.1815C36.9679 30.3122 37.2569 30.3764 37.5486 30.3677V30.3746ZM38.427 28.7469C38.4136 28.645 38.3766 28.5471 38.3187 28.4606C38.2607 28.3741 38.1834 28.3011 38.0922 28.2469C37.8889 28.1277 37.6537 28.0678 37.4154 28.0745C37.1634 28.0666 36.914 28.1263 36.6955 28.2469C36.5981 28.2986 36.5137 28.3702 36.4484 28.4566C36.3831 28.543 36.3384 28.6421 36.3175 28.7469H38.427Z" fill="#EA0029"/>
<path d="M44.64 28.3262C44.8219 28.7359 44.8732 29.188 44.7874 29.6255C44.7015 30.0631 44.4824 30.4665 44.1577 30.785C43.9578 30.9751 43.722 31.1273 43.4629 31.2333C43.2047 31.3449 42.9254 31.4047 42.6422 31.4091C42.3611 31.4166 42.0819 31.3636 41.825 31.254C41.6312 31.1799 41.4715 31.0416 41.3751 30.8643V33.0058H40.2952V27.1469H41.3247V27.5814C41.4223 27.4024 41.5849 27.2638 41.7818 27.1917C42.0415 27.0828 42.3229 27.0298 42.6062 27.0365C42.8925 27.0357 43.1761 27.0884 43.4413 27.1917C43.7027 27.2939 43.9402 27.4451 44.1397 27.6365C44.3439 27.8357 44.5075 28.0696 44.622 28.3262H44.64ZM43.6357 29.6539C43.6974 29.5136 43.7292 29.363 43.7292 29.2108C43.7292 29.0586 43.6974 28.9079 43.6357 28.7676C43.5762 28.637 43.4892 28.5196 43.3801 28.4228C43.2663 28.3237 43.1329 28.2474 42.9878 28.1986C42.5862 28.071 42.1484 28.0982 41.7675 28.2745C41.5963 28.354 41.458 28.4864 41.3751 28.6504V29.7504C41.4599 29.9224 41.6052 30.0604 41.7855 30.1401C42.1664 30.3164 42.6042 30.3437 43.0058 30.216C43.1497 30.1713 43.2831 30.0998 43.3981 30.0056C43.5085 29.9099 43.5957 29.7922 43.6537 29.6608" fill="#EA0029"/>
<path d="M45.5581 27.7641C45.6367 27.6449 45.7367 27.5399 45.8533 27.4538C45.9759 27.3611 46.1101 27.2835 46.2528 27.2227C46.4016 27.1598 46.5574 27.1135 46.7172 27.0848C46.8817 27.0515 47.0495 27.0353 47.2176 27.0365C47.4801 27.0324 47.7416 27.0697 47.9915 27.1469C48.2103 27.2161 48.4131 27.325 48.5891 27.4676C48.7584 27.6099 48.8924 27.7866 48.9814 27.9848C49.0735 28.204 49.1199 28.4383 49.1182 28.6745V31.2677H48.0779V30.9229C47.955 31.0857 47.7809 31.2065 47.5811 31.2677C47.3619 31.3489 47.1286 31.3898 46.8936 31.3884C46.6844 31.3911 46.4762 31.3596 46.278 31.2953C46.0949 31.237 45.9251 31.1457 45.7777 31.0264C45.6353 30.9115 45.5231 30.7662 45.4501 30.6022C45.3677 30.4219 45.3272 30.2266 45.3313 30.0298C45.3256 29.8349 45.369 29.6416 45.458 29.4663C45.547 29.2909 45.6789 29.1388 45.8425 29.0228C46.0042 28.9045 46.1872 28.8156 46.3824 28.7607C46.5881 28.7025 46.8015 28.6734 47.016 28.6745C47.2464 28.6685 47.4762 28.6988 47.6963 28.7642C47.8311 28.801 47.9546 28.8684 48.0563 28.9607V28.8573C48.061 28.7496 48.0416 28.6421 47.9994 28.5422C47.9572 28.4423 47.8931 28.3522 47.8115 28.2779C47.6084 28.1217 47.3515 28.0442 47.0916 28.0607C46.8353 28.0573 46.5816 28.1104 46.35 28.2159C46.1476 28.3032 45.9689 28.4342 45.8281 28.5986L45.5581 27.7641ZM48.0527 29.7953C47.982 29.6996 47.879 29.6302 47.7611 29.5987C47.5951 29.5409 47.4194 29.5128 47.2428 29.5159C47.0245 29.5017 46.8064 29.5459 46.6128 29.6435C46.5483 29.6771 46.4947 29.727 46.4579 29.7879C46.421 29.8487 46.4024 29.9181 46.404 29.9884C46.4019 30.0592 46.4207 30.1291 46.4583 30.1901C46.4959 30.2512 46.5507 30.3008 46.6164 30.3332C46.7944 30.4111 46.987 30.4533 47.1826 30.4575C47.3782 30.4616 47.5726 30.4276 47.7539 30.3574C47.8795 30.3104 47.9848 30.2241 48.0527 30.1125V29.7953Z" fill="#EA0029"/>
<path d="M54.0029 27.1469H55.0324L55.7092 31.2815H54.6545L54.2801 29.0987L53.2722 31.2815H52.419L51.4147 29.0987L51.026 31.2815H49.946L50.6192 27.1469H51.5731L52.7862 29.7884L54.0029 27.1469Z" fill="#EA0029"/>
<path d="M57.6208 27.1469V29.6263L59.5718 27.1469H60.6373V31.2815H59.5898V28.8021L57.6388 31.2815H56.5732V27.1469H57.6208Z" fill="#EA0029"/>
<path d="M67.4082 30.654C67.2573 30.8784 67.0459 31.0595 66.7963 31.1781C66.5046 31.3089 66.1881 31.3813 65.8663 31.3908C65.5444 31.4003 65.2239 31.3467 64.9244 31.2333C64.6572 31.1285 64.4129 30.9764 64.2045 30.785C63.9908 30.5898 63.8206 30.3552 63.7041 30.0953C63.5829 29.8155 63.5205 29.5155 63.5205 29.2125C63.5205 28.9096 63.5829 28.6096 63.7041 28.3297C63.8211 28.0701 63.9913 27.8356 64.2045 27.64C64.411 27.4472 64.6558 27.2959 64.9244 27.1952C65.1969 27.0912 65.4878 27.0385 65.7811 27.04C66.1279 27.0321 66.4715 27.1055 66.7819 27.2538C67.0299 27.3685 67.2403 27.5462 67.3902 27.7676L67.0878 28.6194C66.9542 28.4761 66.7928 28.359 66.6127 28.2746C66.3886 28.1701 66.1419 28.1181 65.8927 28.1228C65.5513 28.1062 65.2159 28.2133 64.9532 28.4228C64.8361 28.5209 64.7432 28.6426 64.6809 28.7791C64.6187 28.9156 64.5887 29.0636 64.5932 29.2125C64.5894 29.3624 64.6196 29.5112 64.6818 29.6487C64.7439 29.7863 64.8365 29.9092 64.9532 30.0091C65.2145 30.2214 65.5506 30.33 65.8927 30.3126C66.1428 30.3186 66.3904 30.264 66.6127 30.154C66.7938 30.0661 66.9581 29.9495 67.0986 29.8091L67.4082 30.654Z" fill="#EA0029"/>
<path d="M71.5446 28.2297H70.2127V31.2815H69.1507V28.2297H67.8188V27.1469H71.5446V28.2297Z" fill="#EA0029"/>
<path d="M72.1959 27.7642C72.2758 27.6448 72.3769 27.5398 72.4946 27.4538C72.6154 27.3604 72.7486 27.2827 72.8906 27.2228C73.0397 27.1608 73.1954 27.1145 73.355 27.0848C73.5195 27.0515 73.6872 27.0353 73.8553 27.0365C74.1179 27.0322 74.3794 27.0694 74.6293 27.1469C74.8489 27.2167 75.0528 27.3255 75.2304 27.4676C75.3975 27.6111 75.5302 27.7875 75.6192 27.9849C75.7112 28.204 75.7577 28.4383 75.756 28.6746V31.2678H74.7157V30.9229C74.594 31.0855 74.4212 31.2063 74.2225 31.2678C74.0032 31.3486 73.77 31.3896 73.535 31.3885C73.3207 31.3915 73.1076 31.3588 72.905 31.2919C72.7226 31.2344 72.5538 31.143 72.4082 31.0229C72.2638 30.9092 72.1501 30.7637 72.0771 30.5988C71.9957 30.4206 71.9552 30.2277 71.9583 30.0332C71.9539 29.8308 72.0022 29.6306 72.0987 29.4505C72.1844 29.2853 72.3073 29.1404 72.4586 29.0263C72.6212 28.9093 72.804 28.8206 72.9986 28.7642C73.2042 28.7059 73.4177 28.6769 73.6322 28.678C73.8637 28.6718 74.0948 28.7021 74.3161 28.7677C74.4505 28.8053 74.5738 28.8727 74.6761 28.9642V28.8573C74.6811 28.7493 74.6614 28.6415 74.6185 28.5414C74.5756 28.4414 74.5105 28.3515 74.4277 28.278C74.2247 28.1215 73.9677 28.0439 73.7077 28.0607C73.4514 28.057 73.1976 28.1101 72.9662 28.2159C72.7624 28.3028 72.5825 28.4338 72.4406 28.5987L72.1959 27.7642ZM74.6941 29.7953C74.621 29.7004 74.5172 29.6313 74.3989 29.5987C74.2329 29.5409 74.0572 29.5129 73.8805 29.516C73.6623 29.5018 73.4442 29.5459 73.2506 29.6436C73.1861 29.6771 73.1325 29.7271 73.0956 29.7879C73.0588 29.8487 73.0402 29.9181 73.0418 29.9884C73.0397 30.0592 73.0585 30.1292 73.0961 30.1902C73.1336 30.2512 73.1885 30.3008 73.2542 30.3333C73.4454 30.4265 73.6591 30.4694 73.8733 30.4574C74.0518 30.4617 74.2289 30.4275 74.3917 30.3574C74.5188 30.3113 74.6255 30.2249 74.6941 30.1126V29.7953Z" fill="#EA0029"/>
<path d="M77.8546 27.1469V28.6159H79.748V27.1469H80.81V31.2815H79.748V29.6987H77.8546V31.2815H76.7891V27.1469H77.8546Z" fill="#EA0029"/>
<path d="M86.1628 29.2194C86.1658 29.5093 86.1071 29.7968 85.9901 30.0642C85.8731 30.3316 85.7004 30.5734 85.4825 30.7746C85.2738 30.9675 85.0297 31.1218 84.7625 31.2298C84.2037 31.4457 83.5792 31.4457 83.0203 31.2298C82.7529 31.1222 82.5087 30.9678 82.3003 30.7746C82.0891 30.5782 81.9203 30.3438 81.8036 30.0849C81.6763 29.8116 81.6124 29.5151 81.6164 29.2159C81.6133 28.9168 81.6772 28.6205 81.8036 28.3469C81.9219 28.0889 82.0905 27.8548 82.3003 27.6572C82.7269 27.2573 83.3 27.0333 83.8968 27.0333C84.4937 27.0333 85.0668 27.2573 85.4933 27.6572C85.7031 27.8548 85.8717 28.0889 85.9901 28.3469C86.1136 28.6212 86.1761 28.9172 86.1736 29.2159L86.1628 29.2194ZM82.7827 28.7676C82.72 28.9094 82.6881 29.0619 82.6891 29.2159C82.6881 29.3677 82.72 29.518 82.7827 29.6573C82.843 29.7875 82.9299 29.9047 83.0383 30.0022C83.1506 30.0997 83.2813 30.1758 83.4234 30.2263C83.5745 30.2791 83.7342 30.3059 83.895 30.3056C84.0559 30.3062 84.2156 30.2794 84.3666 30.2263C84.5068 30.1741 84.636 30.0982 84.7481 30.0022C84.8565 29.9039 84.9444 29.7869 85.0073 29.6573C85.0732 29.5188 85.1064 29.3681 85.1045 29.2159C85.1061 29.0615 85.0729 28.9086 85.0073 28.7676C84.9451 28.6377 84.857 28.5206 84.7481 28.4228C84.636 28.3267 84.5068 28.2508 84.3666 28.1986C84.2156 28.1456 84.0559 28.1187 83.895 28.1193C83.7342 28.119 83.5745 28.1458 83.4234 28.1986C83.2813 28.2491 83.1506 28.3252 83.0383 28.4228C82.9292 28.5196 82.8422 28.637 82.7827 28.7676Z" fill="#EA0029"/>
<path d="M88.6179 27.1468C88.8243 27.1454 89.03 27.1698 89.2299 27.2193C89.4078 27.261 89.5754 27.336 89.723 27.44C89.8716 27.5392 89.9924 27.6719 90.0747 27.8265C90.1569 27.9811 90.1981 28.1527 90.1946 28.3262C90.2006 28.4714 90.1735 28.6162 90.1154 28.7504C90.0557 28.8653 89.9752 28.9692 89.8778 29.0573C90.0372 29.1559 90.1723 29.2865 90.2738 29.4401C90.3796 29.6192 90.4272 29.8245 90.4106 30.0298C90.4146 30.2166 90.37 30.4014 90.281 30.5677C90.1922 30.7222 90.0694 30.8564 89.921 30.9608C89.7684 31.0708 89.5965 31.1537 89.4134 31.2057C89.2165 31.2642 89.0113 31.2932 88.8051 31.2919H86.9548V27.1537L88.6179 27.1468ZM87.9808 28.0952V28.7849H88.7547C88.8097 28.7878 88.8649 28.7801 88.9168 28.7624C88.9687 28.7446 89.0164 28.7171 89.0571 28.6814C89.1249 28.6177 89.1637 28.531 89.1651 28.44C89.1653 28.3938 89.1559 28.348 89.1374 28.3054C89.1188 28.2627 89.0915 28.2241 89.0571 28.1917C89.0146 28.1554 88.9651 28.1276 88.9113 28.1098C88.8576 28.0921 88.8007 28.0847 88.7439 28.0883L87.9808 28.0952ZM87.9808 29.6194V30.3332H88.9635C89.0166 30.3364 89.0699 30.3291 89.12 30.3119C89.1701 30.2947 89.2161 30.268 89.2551 30.2332C89.2916 30.2009 89.3208 30.1617 89.3407 30.1181C89.3606 30.0745 89.3709 30.0274 89.3709 29.9797C89.3709 29.9321 89.3606 29.885 89.3407 29.8414C89.3208 29.7978 89.2916 29.7586 89.2551 29.7263C89.2153 29.6892 89.1678 29.6604 89.1157 29.642C89.0636 29.6236 89.0081 29.6159 88.9527 29.6194H87.9808Z" fill="#EA0029"/>
<path d="M94.3236 27.1469V31.285H93.2616V30.0539H92.9017L92.0305 31.2815H90.8066L91.7858 29.9022C91.5451 29.7898 91.3419 29.6155 91.199 29.3987C91.0536 29.1632 90.9812 28.8928 90.9902 28.6193C90.9871 28.4074 91.03 28.1972 91.1162 28.0021C91.195 27.8267 91.3115 27.6692 91.4582 27.54C91.6105 27.4132 91.7864 27.3149 91.9765 27.2503C92.1853 27.1831 92.4042 27.1493 92.6245 27.1503L94.3236 27.1469ZM92.5417 28.1814C92.4756 28.1794 92.4098 28.1899 92.348 28.2124C92.2862 28.2349 92.2297 28.2689 92.1817 28.3124C92.1386 28.3542 92.1046 28.4037 92.0818 28.4582C92.0589 28.5127 92.0476 28.571 92.0485 28.6297C92.0458 28.6882 92.0571 28.7466 92.0814 28.8004C92.1057 28.8541 92.1425 28.9019 92.1889 28.94C92.2899 29.0199 92.418 29.0616 92.5489 29.0573H93.2688V28.1745L92.5417 28.1814Z" fill="#EA0029"/>
<path d="M98.7476 28.2297H97.4157V31.2815H96.3502V28.2297H95.0183V27.1469H98.7476V28.2297Z" fill="#EA0029"/>
<path d="M103.028 30.654C102.873 30.8808 102.656 31.0622 102.401 31.1781C102.11 31.3089 101.793 31.3813 101.471 31.3908C101.149 31.4003 100.829 31.3467 100.529 31.2333C100.263 31.1273 100.019 30.9753 99.8094 30.785C99.598 30.5887 99.4292 30.3543 99.3126 30.0953C99.1259 29.6861 99.0734 29.2321 99.1621 28.7936C99.2509 28.3552 99.4766 27.9528 99.8094 27.64C100.017 27.4485 100.262 27.2974 100.529 27.1952C100.802 27.0912 101.093 27.0385 101.386 27.04C101.733 27.0321 102.076 27.1055 102.387 27.2538C102.635 27.3685 102.845 27.5462 102.995 27.7676L102.693 28.6194C102.559 28.4761 102.398 28.359 102.218 28.2746C101.994 28.1701 101.747 28.1181 101.498 28.1228C101.156 28.1062 100.821 28.2133 100.558 28.4228C100.441 28.5211 100.348 28.6427 100.286 28.7792C100.224 28.9157 100.194 29.0637 100.198 29.2125C100.194 29.3624 100.225 29.5112 100.287 29.6487C100.349 29.7863 100.441 29.9092 100.558 30.0091C100.819 30.2214 101.156 30.33 101.498 30.3126C101.748 30.3181 101.995 30.2636 102.218 30.154C102.399 30.0661 102.563 29.9495 102.704 29.8091L103.028 30.654Z" fill="#EA0029"/>
<path d="M106.959 27.1469V31.285H105.879V30.0539H105.519L104.651 31.2815H103.417L104.399 29.9022C104.158 29.7909 103.954 29.6163 103.812 29.3987C103.667 29.1632 103.595 28.8928 103.604 28.6193C103.599 28.4077 103.641 28.1975 103.726 28.0021C103.812 27.826 103.934 27.6687 104.086 27.54C104.237 27.4117 104.413 27.3133 104.604 27.2503C104.812 27.1834 105.03 27.1496 105.249 27.1503L106.959 27.1469ZM105.159 28.1814C105.093 28.1792 105.027 28.1896 104.965 28.2121C104.903 28.2346 104.847 28.2687 104.799 28.3124C104.756 28.3542 104.722 28.4037 104.699 28.4582C104.676 28.5127 104.665 28.571 104.666 28.6297C104.663 28.6882 104.674 28.7466 104.698 28.8004C104.723 28.8541 104.76 28.9019 104.806 28.94C104.907 29.0208 105.035 29.0626 105.166 29.0573H105.886V28.1745L105.159 28.1814Z" fill="#EA0029"/>
<path d="M22.8185 27.1503L24.604 31.285L23.3225 31.2815L22.3074 28.8573L21.2958 31.2815H20.0107L21.7998 27.1469L22.8185 27.1503Z" fill="#EA0029"/>
</svg>
