<svg width="51" height="33" viewBox="0 0 51 33" fill="none" xmlns="http://www.w3.org/2000/svg">
<path d="M0.883545 21.8987H50.8834V31.9561C50.8834 32.4321 50.4974 32.8182 50.0213 32.8182H1.74565C1.26958 32.8182 0.883545 32.4321 0.883545 31.9561V21.8987Z" fill="#73AF00"/>
<path d="M1.74565 0.059639H50.0214C50.4975 0.059639 50.8835 0.445673 50.8835 0.921746V10.9791H0.883545V0.921746C0.883545 0.445673 1.26958 0.059639 1.74565 0.059639Z" fill="#82AFFF"/>
<path d="M50.8834 10.979H0.883545V21.8979H50.8834V10.979Z" fill="#FF4B55"/>
<path d="M27.0594 20.0139C25.1248 20.0139 23.5554 18.4445 23.5554 16.5082C23.5554 14.5754 25.1248 13.0026 27.0594 13.0026C27.7792 13.0026 28.443 13.2239 28.9961 13.5986C29.0808 13.656 29.1774 13.5446 29.1065 13.4709C28.2798 12.6114 27.1097 12.0869 25.8124 12.1312C23.5835 12.2073 21.7384 13.9942 21.5959 16.2199C21.4327 18.7691 23.4513 20.8876 25.9646 20.8876C27.2024 20.8876 28.315 20.3701 29.1097 19.5426C29.1798 19.4696 29.0829 19.3599 28.9991 19.4167C28.4454 19.7923 27.7805 20.0139 27.0594 20.0139Z" fill="#F5F5F5"/>
<path d="M30.1272 14.35L30.4907 15.3722L31.4706 14.9065C31.5444 14.8713 31.6215 14.9484 31.5863 15.0222L31.1206 16.0021L32.1428 16.3657C32.2198 16.393 32.2198 16.502 32.1428 16.5293L31.1206 16.8929L31.5863 17.8728C31.6215 17.9466 31.5444 18.0237 31.4706 17.9885L30.4907 17.5228L30.1272 18.545C30.0998 18.622 29.9908 18.622 29.9635 18.545L29.5999 17.5228L28.62 17.9885C28.5462 18.0237 28.4692 17.9466 28.5043 17.8728L28.97 16.8929L27.9479 16.5293C27.8708 16.502 27.8708 16.393 27.9479 16.3657L28.97 16.0021L28.5043 15.0222C28.4692 14.9484 28.5462 14.8713 28.62 14.9065L29.5999 15.3722L29.9635 14.35C29.9909 14.2731 30.0998 14.2731 30.1272 14.35Z" fill="#F5F5F5"/>
</svg>
