<svg width="51" height="34" viewBox="0 0 51 34" fill="none" xmlns="http://www.w3.org/2000/svg">
<path d="M49.3005 33.703H1.02477C0.548693 33.703 0.162659 33.317 0.162659 32.8409V1.8065C0.162659 1.33043 0.548693 0.944397 1.02477 0.944397H49.3006C49.7766 0.944397 50.1627 1.33043 50.1627 1.8065V32.8409C50.1626 33.3171 49.7765 33.703 49.3005 33.703Z" fill="#FF4B55"/>
<path d="M25.5648 7.55515L27.8703 14.4682L35.1575 14.5247C35.565 14.5278 35.7339 15.0478 35.4062 15.2899L29.544 19.6189L31.7421 26.5668C31.8651 26.9553 31.4227 27.2768 31.0911 27.0398L25.1625 22.8022L19.2338 27.0398C18.9024 27.2767 18.46 26.9553 18.5829 26.5668L20.781 19.6189L14.9188 15.2899C14.591 15.0479 14.76 14.5278 15.1674 14.5247L22.4546 14.4682L24.7602 7.55515C24.8892 7.16863 25.4359 7.16863 25.5648 7.55515Z" fill="#FFE15A"/>
</svg>
