<svg width="51" height="33" viewBox="0 0 51 33" fill="none" xmlns="http://www.w3.org/2000/svg">
<path d="M50.1476 11.1429H0.147736V1.08537C0.147736 0.609301 0.53377 0.223267 1.00984 0.223267H49.2856C49.7617 0.223267 50.1477 0.609301 50.1477 1.08537L50.1476 11.1429Z" fill="#FF4B55"/>
<path d="M49.2855 32.9819H1.00984C0.53377 32.9819 0.147736 32.5959 0.147736 32.1198V22.0624H50.1476V32.1198C50.1476 32.596 49.7616 32.9819 49.2855 32.9819Z" fill="#464655"/>
<path d="M50.1476 11.1427H0.147736V22.0617H50.1476V11.1427Z" fill="#F5F5F5"/>
<path d="M27.9002 14.9005C27.9002 14.4731 27.4813 14.1711 27.0758 14.3064L26.3137 14.5604L26.1287 13.4428C26.018 12.7762 25.4467 12.2924 24.7707 12.2924H24.0579L23.3124 13.21H24.2996L24.0233 14.5744L23.2193 14.3065C22.8137 14.1712 22.395 14.4732 22.395 14.9006V19.5368L23.5047 18.4272L22.9818 19.9956H22.3951V20.9132H27.9003V19.9956H27.3135L26.7907 18.4272L27.9003 19.5368V14.9005H27.9002ZM24.6889 19.9954H23.9493L24.4579 18.6371L24.6889 18.9322V19.9954ZM25.6063 19.9954V18.9322L25.8374 18.6371L26.346 19.9954H25.6063ZM25.1476 18.3324C25.1476 18.3324 23.7283 17.3719 23.7857 15.5799C23.7857 15.5799 24.6603 15.4366 25.1476 14.6623C25.635 15.4365 26.5096 15.5799 26.5096 15.5799C26.567 17.372 25.1476 18.3324 25.1476 18.3324Z" fill="#F0C727"/>
</svg>
