<svg width="51" height="33" viewBox="0 0 51 33" fill="none" xmlns="http://www.w3.org/2000/svg">
<path d="M49.7422 0.0740662H1.46654C0.990466 0.0740662 0.604431 0.460003 0.604431 0.936076V31.9705C0.604431 32.4466 0.990466 32.8326 1.46654 32.8326H49.7423C50.2184 32.8326 50.6044 32.4466 50.6044 31.9705V0.936076C50.6043 0.460003 50.2183 0.0740662 49.7422 0.0740662Z" fill="#82C3D2"/>
<path d="M6.41644 3.99704C6.33841 3.66667 6.31898 3.54489 6.46722 3.39675C6.53948 3.32448 6.53948 3.20739 6.46722 3.13513C6.39495 3.06286 6.27786 3.06286 6.2056 3.13513C5.9056 3.43522 5.97718 3.74665 6.05482 4.07643C5.81829 3.99919 5.57298 4.05651 5.44154 4.22233C5.3763 4.30505 5.25013 4.53708 5.48656 4.90758C5.54154 4.99362 5.65521 5.01891 5.74202 4.96442C5.82825 4.90944 5.85335 4.79489 5.79837 4.70895C5.7097 4.5694 5.70706 4.48337 5.73187 4.45192C5.76116 4.41471 5.85198 4.39508 5.9471 4.42878C6.00853 4.45006 6.1513 4.5238 6.1513 4.74645C6.1513 4.92428 6.06907 5.08727 5.92572 5.19313C5.78206 5.29938 5.59613 5.32936 5.41693 5.2737C5.19564 5.20612 5.04105 4.97301 5.04105 4.70671C5.04105 4.51618 5.08187 4.3236 5.15687 4.15485C5.16878 4.12995 5.45159 3.54411 5.52445 3.32575C5.66849 2.89382 5.5221 2.67663 5.4222 2.58591C5.28851 2.46413 5.0931 2.43376 4.92494 2.50749C4.89935 2.51882 4.87826 2.53523 4.85609 2.55046C4.83392 2.53513 4.81273 2.51882 4.78724 2.50749C4.61917 2.43376 4.42386 2.46413 4.28998 2.58591C4.19007 2.67663 4.04369 2.89392 4.18773 3.32575C4.26058 3.54411 4.5433 4.12995 4.55267 4.14948C4.63011 4.3237 4.67103 4.51628 4.67103 4.7068C4.67103 4.97321 4.51654 5.20622 4.29515 5.27379C4.11527 5.32936 3.92992 5.29977 3.78636 5.19323C3.643 5.08727 3.56078 4.92438 3.56078 4.74655C3.56078 4.52389 3.70355 4.45026 3.76498 4.42887C3.86039 4.39528 3.95072 4.41471 3.98021 4.45202C4.00502 4.48346 4.00238 4.5695 3.91371 4.70905C3.85873 4.79508 3.88382 4.90964 3.97005 4.96452C4.05697 5.0195 4.17103 4.99381 4.22552 4.90768C4.46185 4.53717 4.33578 4.30524 4.27054 4.22243C4.139 4.05661 3.89379 3.99928 3.65726 4.07653C3.735 3.74694 3.80648 3.43532 3.50648 3.13522C3.43422 3.06296 3.31713 3.06296 3.24486 3.13522C3.1726 3.20749 3.1726 3.32458 3.24486 3.39684C3.393 3.54499 3.37377 3.66677 3.29564 3.99714C3.24877 4.19509 3.19056 4.44196 3.19056 4.74626C3.19056 4.9487 3.26176 5.14235 3.38148 5.30143H3.37552C3.27328 5.30143 3.19047 5.38415 3.19047 5.48649C3.19047 5.58874 3.27318 5.67155 3.37552 5.67155H3.38148C3.26176 5.83063 3.19056 6.02418 3.19056 6.22662C3.19056 6.53092 3.24877 6.77779 3.29554 6.97584C3.37357 7.30621 3.393 7.42799 3.24476 7.57613C3.1725 7.6484 3.1725 7.76549 3.24476 7.83775C3.2809 7.87389 3.32826 7.89195 3.37562 7.89195C3.42289 7.89195 3.47035 7.87389 3.50648 7.83775C3.80648 7.53766 3.7349 7.22613 3.65726 6.89645C3.89379 6.9734 4.1391 6.91637 4.27054 6.75055C4.33578 6.66784 4.46195 6.4358 4.22552 6.0653C4.17074 5.97926 4.05638 5.95368 3.97005 6.00846C3.88382 6.06344 3.85873 6.17799 3.91371 6.26393C4.00238 6.40348 4.00502 6.48952 3.98021 6.52096C3.95082 6.55778 3.86039 6.57731 3.76498 6.54411C3.70355 6.52282 3.56078 6.44908 3.56078 6.22643C3.56078 6.0486 3.643 5.88561 3.78636 5.77975C3.93002 5.6735 4.11576 5.64313 4.29515 5.69918C4.51644 5.76676 4.67103 5.99987 4.67103 6.26618C4.67103 6.4567 4.63021 6.64928 4.55267 6.8235L3.34066 9.55015C3.24105 9.77418 3.19047 10.0125 3.19047 10.2578C3.19047 10.5735 3.33402 10.8618 3.56 11.0377C3.33412 11.2137 3.19047 11.502 3.19047 11.8177C3.19047 12.0631 3.24115 12.3013 3.34066 12.5253L4.55248 15.2518C4.62992 15.426 4.67083 15.6186 4.67083 15.8091C4.67083 16.0755 4.51634 16.3085 4.29496 16.3761C4.11507 16.4322 3.92972 16.4021 3.78617 16.2956C3.64281 16.1896 3.56058 16.0267 3.56058 15.8489C3.56058 15.6262 3.70336 15.5526 3.76478 15.5312C3.86019 15.4979 3.95052 15.517 3.98002 15.5543C4.00482 15.5858 4.00218 15.6718 3.91351 15.8114C3.85853 15.8974 3.88363 16.012 3.96986 16.0668C4.05677 16.1218 4.17084 16.0964 4.22533 16.01C4.46166 15.6395 4.33558 15.4076 4.27035 15.3248C4.1388 15.1589 3.89359 15.1018 3.65707 15.1789C3.7348 14.8493 3.80629 14.5376 3.50629 14.2375C3.43402 14.1653 3.31693 14.1653 3.24467 14.2375C3.1724 14.3098 3.1724 14.4269 3.24467 14.4992C3.39281 14.6473 3.37357 14.7691 3.29545 15.0995C3.24867 15.2975 3.19047 15.5444 3.19047 15.8487C3.19047 16.0511 3.26166 16.2448 3.38138 16.4039H3.37543C3.27318 16.4039 3.19037 16.4866 3.19037 16.5889C3.19037 16.6913 3.27308 16.774 3.37543 16.774H3.38138C3.26156 16.933 3.19047 17.1266 3.19047 17.3291C3.19047 17.6334 3.24867 17.8803 3.29545 18.0784C3.37347 18.4087 3.39291 18.5305 3.24467 18.6786C3.1724 18.7509 3.1724 18.868 3.24467 18.9403C3.2808 18.9764 3.32816 18.9945 3.37552 18.9945C3.42279 18.9945 3.47025 18.9764 3.50638 18.9403C3.80638 18.6402 3.7348 18.3287 3.65716 17.999C3.89369 18.0759 4.139 18.0189 4.27044 17.8531C4.33568 17.7704 4.46185 17.5383 4.22543 17.1678C4.17064 17.0818 4.05629 17.0562 3.96996 17.111C3.88373 17.166 3.85863 17.2805 3.91361 17.3664C4.00228 17.506 4.00492 17.592 3.98011 17.6235C3.95072 17.6607 3.86029 17.6803 3.76488 17.6466C3.70345 17.6253 3.56068 17.5516 3.56068 17.3289C3.56068 17.1511 3.64291 16.9881 3.78627 16.8823C3.92992 16.776 4.11566 16.7456 4.29505 16.8017C4.51634 16.8693 4.67093 17.1024 4.67093 17.3687C4.67093 17.5592 4.63011 17.7518 4.55257 17.926L3.34066 20.653C3.24105 20.877 3.19047 21.1153 3.19047 21.3606C3.19047 21.6763 3.33402 21.9646 3.56 22.1406C3.33412 22.3165 3.19047 22.6048 3.19047 22.9205C3.19047 23.1659 3.24115 23.4041 3.34066 23.6282L4.55248 26.3546C4.62992 26.5288 4.67083 26.7214 4.67083 26.9119C4.67083 27.1783 4.51634 27.4114 4.29496 27.4789C4.11507 27.535 3.92972 27.5046 3.78617 27.3984C3.64281 27.2924 3.56058 27.1295 3.56058 26.9517C3.56058 26.729 3.70336 26.6554 3.76478 26.634C3.86019 26.6007 3.95052 26.6198 3.98002 26.6572C4.00482 26.6886 4.00218 26.7746 3.91351 26.9142C3.85853 27.0002 3.88363 27.1147 3.96986 27.1697C4.05677 27.2246 4.17084 27.1992 4.22533 27.1128C4.46166 26.7423 4.33558 26.5104 4.27035 26.4276C4.1388 26.2613 3.89359 26.2044 3.65707 26.2817C3.7348 25.9521 3.80629 25.6405 3.50629 25.3404C3.43402 25.2681 3.31693 25.2681 3.24467 25.3404C3.1724 25.4126 3.1724 25.5297 3.24467 25.602C3.39281 25.7501 3.37357 25.8719 3.29545 26.2023C3.24867 26.4003 3.19047 26.6471 3.19047 26.9514C3.19047 27.2414 3.32943 27.5176 3.56175 27.6916C3.32943 27.8656 3.19047 28.1418 3.19047 28.4319C3.19047 28.7362 3.24867 28.983 3.29545 29.1811C3.37347 29.5113 3.39291 29.6332 3.24467 29.7814C3.1724 29.8536 3.1724 29.9707 3.24467 30.043C3.2808 30.0791 3.32816 30.0972 3.37552 30.0972C3.42279 30.0972 3.47025 30.0791 3.50638 30.043C3.80638 29.7429 3.7348 29.4314 3.65716 29.1017C3.89369 29.1786 4.139 29.1216 4.27044 28.9558C4.33568 28.8731 4.46185 28.641 4.22543 28.2705C4.17064 28.1845 4.05629 28.1592 3.96996 28.2137C3.88373 28.2687 3.85863 28.3832 3.91361 28.4692C4.00228 28.6087 4.00492 28.6947 3.98011 28.7262C3.95072 28.7634 3.86029 28.7825 3.76488 28.7493C3.70345 28.728 3.56068 28.6543 3.56068 28.4317C3.56068 28.2538 3.64291 28.0908 3.78627 27.985C3.92992 27.8787 4.11566 27.8488 4.29505 27.9044C4.51634 27.972 4.67093 28.2051 4.67093 28.4714C4.67093 28.6619 4.63011 28.8545 4.55511 29.0233C4.5432 29.0482 4.26039 29.634 4.18753 29.8524C4.04349 30.2843 4.18988 30.5015 4.28978 30.5922C4.37523 30.6699 4.48529 30.7108 4.59779 30.7108C4.66156 30.7108 4.72621 30.6974 4.78714 30.6707C4.81273 30.6594 4.83382 30.643 4.85599 30.6278C4.87816 30.6431 4.89935 30.6594 4.92484 30.6707C4.98568 30.6975 5.05042 30.7108 5.11419 30.7108C5.2264 30.7108 5.33665 30.6699 5.4222 30.5922C5.5221 30.5015 5.66849 30.2842 5.52445 29.8524C5.45159 29.634 5.16888 29.0482 5.15951 29.0286C5.08206 28.8544 5.04115 28.6618 5.04115 28.4713C5.04115 28.2049 5.19564 27.9718 5.41702 27.9043C5.597 27.8487 5.78226 27.8786 5.92581 27.9849C6.06917 28.0908 6.1514 28.2537 6.1514 28.4316C6.1514 28.6542 6.00863 28.7279 5.9472 28.7492C5.85218 28.7825 5.76116 28.7634 5.73197 28.7261C5.70716 28.6946 5.7098 28.6086 5.79847 28.4691C5.85345 28.383 5.82835 28.2686 5.74212 28.2136C5.6557 28.1594 5.54173 28.1847 5.48665 28.2704C5.25033 28.6409 5.3764 28.8729 5.44163 28.9557C5.57318 29.1215 5.81839 29.1786 6.05491 29.1016C5.97718 29.4312 5.9057 29.7428 6.2057 30.0429C6.24183 30.079 6.28919 30.0971 6.33655 30.0971C6.38392 30.0971 6.43128 30.079 6.46741 30.0429C6.53968 29.9706 6.53968 29.8535 6.46741 29.7813C6.31927 29.6331 6.33851 29.5113 6.41663 29.181C6.46341 28.9829 6.52161 28.7361 6.52161 28.4318C6.52161 28.1417 6.38265 27.8656 6.15032 27.6915C6.38265 27.5175 6.52161 27.2414 6.52161 26.9513C6.52161 26.647 6.46341 26.4001 6.41663 26.2021C6.33861 25.8718 6.31917 25.7499 6.46741 25.6018C6.53968 25.5295 6.53968 25.4124 6.46741 25.3402C6.39515 25.2679 6.27806 25.2679 6.20579 25.3402C5.90579 25.6403 5.97738 25.9517 6.05501 26.2815C5.81849 26.2042 5.57318 26.2611 5.44173 26.4274C5.3765 26.5101 5.25033 26.7421 5.48675 27.1126C5.54173 27.1987 5.6554 27.2239 5.74222 27.1695C5.82845 27.1145 5.85355 26.9999 5.79857 26.914C5.7099 26.7744 5.70726 26.6884 5.73206 26.657C5.76136 26.6197 5.85218 26.6006 5.9473 26.6338C6.00872 26.6551 6.1515 26.7288 6.1515 26.9515C6.1515 27.1293 6.06927 27.2923 5.92591 27.3982C5.78226 27.5044 5.59632 27.5348 5.41712 27.4787C5.19583 27.4112 5.04124 27.178 5.04124 26.9117C5.04124 26.7212 5.08206 26.5286 5.1596 26.3544L6.37142 23.628C6.47103 23.4039 6.52161 23.1657 6.52161 22.9203C6.52161 22.6046 6.37806 22.3163 6.15208 22.1404C6.37796 21.9644 6.52161 21.6761 6.52161 21.3604C6.52161 21.115 6.47093 20.8768 6.37142 20.6528L5.1597 17.9265C5.08226 17.7523 5.04134 17.5597 5.04134 17.3692C5.04134 17.1028 5.19583 16.8698 5.41722 16.8022C5.5972 16.7465 5.78245 16.7765 5.92601 16.8828C6.06937 16.9887 6.15159 17.1516 6.15159 17.3294C6.15159 17.5521 6.00882 17.6257 5.94739 17.6471C5.85238 17.6807 5.76136 17.6613 5.73216 17.624C5.70736 17.5925 5.70999 17.5065 5.79866 17.3669C5.85364 17.2809 5.82855 17.1664 5.74232 17.1115C5.65589 17.0573 5.54193 17.0826 5.48685 17.1683C5.25052 17.5388 5.3766 17.7707 5.44183 17.8536C5.57337 18.0194 5.81859 18.0765 6.05511 17.9995C5.97738 18.329 5.90589 18.6407 6.20589 18.9408C6.24202 18.9769 6.28939 18.995 6.33675 18.995C6.38411 18.995 6.43148 18.9769 6.46761 18.9408C6.53987 18.8685 6.53987 18.7514 6.46761 18.6791C6.31946 18.531 6.3387 18.4092 6.41683 18.0788C6.4636 17.8808 6.52181 17.6339 6.52181 17.3296C6.52181 17.1272 6.45062 16.9335 6.33089 16.7745H6.33685C6.43909 16.7745 6.52191 16.6917 6.52191 16.5894C6.52191 16.4872 6.43919 16.4043 6.33685 16.4043H6.33089C6.45071 16.2453 6.52181 16.0518 6.52181 15.8492C6.52181 15.5449 6.4636 15.298 6.41683 15.0999C6.3388 14.7696 6.31937 14.6478 6.46761 14.4997C6.53987 14.4274 6.53987 14.3103 6.46761 14.238C6.39534 14.1658 6.27825 14.1658 6.20599 14.238C5.90599 14.5381 5.97757 14.8497 6.05521 15.1793C5.81868 15.1024 5.57337 15.1594 5.44193 15.3252C5.37669 15.408 5.25052 15.64 5.48695 16.0105C5.54193 16.0965 5.6556 16.1215 5.74241 16.0673C5.82864 16.0123 5.85374 15.8978 5.79876 15.8119C5.71009 15.6723 5.70745 15.5863 5.73226 15.5548C5.76156 15.5176 5.85238 15.4985 5.94749 15.5317C6.00892 15.553 6.15169 15.6267 6.15169 15.8494C6.15169 16.0272 6.06946 16.1902 5.92611 16.296C5.78245 16.4023 5.59652 16.4323 5.41732 16.3766C5.19603 16.309 5.04144 16.0759 5.04144 15.8096C5.04144 15.6191 5.08226 15.4265 5.1598 15.2523L6.37161 12.5258C6.47122 12.3018 6.52181 12.0635 6.52181 11.8182C6.52181 11.5025 6.37825 11.2142 6.15228 11.0382C6.37816 10.8623 6.52181 10.574 6.52181 10.2583C6.52181 10.0128 6.47112 9.77466 6.37161 9.55064L5.1598 6.82418C5.08236 6.64996 5.04144 6.45739 5.04144 6.26686C5.04144 6.00045 5.19593 5.76745 5.41732 5.69987C5.5973 5.6442 5.78255 5.67418 5.92611 5.78043C6.06946 5.88639 6.15169 6.04928 6.15169 6.22711C6.15169 6.44977 6.00892 6.5234 5.94749 6.54479C5.85247 6.57809 5.76146 6.55846 5.73226 6.52164C5.70745 6.4902 5.71009 6.40416 5.79876 6.26461C5.85374 6.17858 5.82864 6.06403 5.74241 6.00914C5.65599 5.95494 5.54202 5.97985 5.48695 6.06588C5.25062 6.43639 5.37669 6.66832 5.44193 6.75114C5.57347 6.91696 5.81868 6.97408 6.05521 6.89703C5.97747 7.22662 5.90599 7.53824 6.20599 7.83834C6.24212 7.87447 6.28948 7.89254 6.33685 7.89254C6.38421 7.89254 6.43157 7.87447 6.46771 7.83834C6.53997 7.76607 6.53997 7.64898 6.46771 7.57672C6.31956 7.42858 6.3388 7.3068 6.41693 6.97643C6.4637 6.77838 6.52191 6.53151 6.52191 6.22721C6.52191 6.02477 6.45071 5.83112 6.33099 5.67204H6.33695C6.43919 5.67204 6.522 5.58932 6.522 5.48698C6.522 5.38473 6.43929 5.30192 6.33695 5.30192H6.33099C6.45081 5.14284 6.52191 4.94938 6.52191 4.74674C6.52132 4.44196 6.46312 4.19509 6.41644 3.99704ZM4.53851 3.20847C4.47279 3.0112 4.49574 2.8988 4.5391 2.85935C4.56742 2.83259 4.61039 2.83366 4.63763 2.84597C4.67103 2.86081 4.67103 2.88435 4.67103 2.89587C4.67103 2.99811 4.75374 3.08093 4.85609 3.08093C4.95833 3.08093 5.04115 2.99821 5.04115 2.89587C5.04115 2.88435 5.04115 2.86081 5.07454 2.84597C5.1013 2.83366 5.14398 2.83259 5.17308 2.85935C5.21644 2.8988 5.23939 3.0112 5.17367 3.20847C5.12581 3.35153 4.95267 3.72399 4.85619 3.92614C4.76165 3.72868 4.58666 3.35251 4.53851 3.20847ZM4.85599 10.8437C4.90912 10.9159 4.96917 10.9831 5.04222 11.0377C4.96917 11.0925 4.90912 11.1596 4.85599 11.2318C4.80287 11.1596 4.74281 11.0924 4.66976 11.0377C4.74281 10.983 4.80287 10.916 4.85599 10.8437ZM4.85599 21.9464C4.90912 22.0186 4.96917 22.0858 5.04222 22.1405C4.96917 22.1952 4.90912 22.2623 4.85599 22.3345C4.80287 22.2623 4.74281 22.1951 4.66976 22.1405C4.74281 22.0857 4.80287 22.0188 4.85599 21.9464ZM5.17337 29.9698C5.2391 30.1671 5.21615 30.2795 5.17279 30.319C5.14369 30.3453 5.10101 30.3443 5.07425 30.3323C5.04085 30.3175 5.04085 30.2941 5.04085 30.2824C5.04085 30.1802 4.95814 30.0974 4.8558 30.0974C4.75345 30.0974 4.67074 30.1801 4.67074 30.2824C4.67074 30.294 4.67074 30.3175 4.63734 30.3323C4.61019 30.3443 4.56722 30.3454 4.5388 30.319C4.49544 30.2795 4.4725 30.1671 4.53822 29.9698C4.58607 29.8268 4.75921 29.4543 4.8557 29.2522C4.95023 29.4495 5.12523 29.8258 5.17337 29.9698ZM5.04046 27.6918C4.97044 27.7463 4.90833 27.8115 4.85599 27.8853C4.80374 27.8115 4.74154 27.7464 4.67152 27.6918C4.74154 27.6373 4.80365 27.5721 4.85599 27.4984C4.90824 27.5721 4.97035 27.6373 5.04046 27.6918ZM6.03284 23.4777L4.85589 26.1257L3.67894 23.4777C3.6015 23.3034 3.56058 23.1109 3.56058 22.9203C3.56058 22.6539 3.71507 22.4208 3.93646 22.3534C4.11634 22.2977 4.30189 22.3277 4.44525 22.4339C4.58861 22.5399 4.67083 22.7028 4.67083 22.8806C4.67083 23.1033 4.52806 23.1769 4.46664 23.1983C4.37123 23.2316 4.2805 23.2124 4.2514 23.1751C4.2266 23.1437 4.22923 23.0576 4.31791 22.9181C4.37289 22.8321 4.34779 22.7175 4.26156 22.6626C4.17513 22.6084 4.06117 22.6337 4.00609 22.7195C3.76976 23.09 3.89584 23.3219 3.96107 23.4047C4.09505 23.5739 4.3471 23.6321 4.58812 23.5478C4.61556 23.5383 4.64339 23.5265 4.67083 23.5125V23.9805C4.67083 23.9804 4.67054 23.9802 4.67054 23.9802C4.66498 23.8827 4.58431 23.8059 4.48587 23.8059C4.38363 23.8059 4.30082 23.8886 4.30082 23.9909C4.30082 24.1117 4.38519 24.321 4.67083 24.3859V24.7311C4.67083 24.8333 4.75355 24.9161 4.85589 24.9161C4.95824 24.9161 5.04095 24.8334 5.04095 24.7311V24.3859C5.3266 24.321 5.41097 24.1117 5.41097 23.9909C5.41097 23.8887 5.32845 23.7998 5.2263 23.7998C5.12406 23.7998 5.04163 23.8765 5.04163 23.9787C5.04154 23.979 5.04095 23.9795 5.04085 23.9798V23.5127C5.06829 23.5267 5.09613 23.5385 5.12357 23.548C5.36458 23.6322 5.61654 23.574 5.75062 23.4049C5.81585 23.3222 5.94202 23.0902 5.7056 22.7197C5.65062 22.6336 5.53646 22.6083 5.45013 22.6628C5.3639 22.7178 5.3388 22.8324 5.39378 22.9183C5.48245 23.0578 5.48509 23.1439 5.46029 23.1753C5.43099 23.2125 5.34027 23.2317 5.24505 23.1985C5.18363 23.1772 5.04085 23.1034 5.04085 22.8808C5.04085 22.703 5.12308 22.54 5.26644 22.4341C5.41009 22.3279 5.59603 22.2975 5.77523 22.3535C5.99652 22.4211 6.15111 22.6542 6.15111 22.9205C6.1513 23.1109 6.11048 23.3035 6.03284 23.4777ZM6.03284 20.8033C6.11029 20.9775 6.1512 21.1701 6.1512 21.3606C6.1512 21.627 5.99671 21.86 5.77532 21.9276C5.59574 21.9836 5.4099 21.9533 5.26654 21.847C5.12318 21.741 5.04095 21.5782 5.04095 21.4003C5.04095 21.1777 5.18372 21.104 5.24515 21.0827C5.34036 21.0494 5.43119 21.0685 5.46038 21.1058C5.48519 21.1372 5.48255 21.2233 5.39388 21.3628C5.3389 21.4489 5.364 21.5633 5.45023 21.6183C5.53714 21.6733 5.6512 21.6479 5.7057 21.5615C5.94202 21.191 5.81595 20.959 5.75072 20.8762C5.61663 20.7071 5.36468 20.6495 5.12367 20.7331C5.09622 20.7426 5.06839 20.7545 5.04095 20.7684V20.3003L5.04124 20.3009C5.04681 20.3981 5.12747 20.4751 5.22591 20.4751C5.32816 20.4751 5.41097 20.3924 5.41097 20.2901C5.41097 20.1694 5.3266 19.96 5.04095 19.8952V19.5499C5.04095 19.4477 4.95824 19.3649 4.85589 19.3649C4.75355 19.3649 4.67083 19.4476 4.67083 19.5499V19.8952C4.38519 19.96 4.30082 20.1694 4.30082 20.2901C4.30082 20.3923 4.38334 20.4812 4.48548 20.4812C4.58773 20.4812 4.67015 20.4045 4.67015 20.3023C4.67025 20.302 4.67083 20.3015 4.67083 20.3015L4.67093 20.7683C4.64349 20.7543 4.61566 20.7425 4.58822 20.733C4.3472 20.6495 4.09515 20.7071 3.96117 20.8761C3.89593 20.9588 3.76976 21.1909 4.00619 21.5614C4.06117 21.6474 4.17533 21.6724 4.26166 21.6182C4.34789 21.5632 4.37298 21.4487 4.318 21.3627C4.22933 21.2232 4.22669 21.1371 4.2515 21.1057C4.2806 21.0685 4.37132 21.0494 4.46673 21.0826C4.52816 21.1038 4.67093 21.1776 4.67093 21.4002C4.67093 21.5781 4.58871 21.7411 4.44535 21.8469C4.30169 21.9532 4.11615 21.9835 3.93656 21.9275C3.71527 21.8599 3.56068 21.6268 3.56068 21.3605C3.56068 21.17 3.6015 20.9774 3.67904 20.8032L4.85599 18.1551L6.03284 20.8033ZM5.04046 16.5892C4.97044 16.6437 4.90833 16.7089 4.85599 16.7827C4.80374 16.7089 4.74154 16.6438 4.67152 16.5892C4.74154 16.5347 4.80365 16.4695 4.85599 16.3957C4.90824 16.4694 4.97035 16.5346 5.04046 16.5892ZM6.03284 12.3751L4.85589 15.0231L3.67894 12.3751C3.6015 12.2008 3.56058 12.0083 3.56058 11.8177C3.56058 11.5513 3.71507 11.3183 3.93646 11.2507C4.11634 11.1951 4.30189 11.2251 4.44525 11.3313C4.58861 11.4373 4.67083 11.6001 4.67083 11.778C4.67083 12.0006 4.52806 12.0743 4.46664 12.0957C4.37123 12.1293 4.2805 12.1098 4.2514 12.0725C4.2266 12.0411 4.22923 11.955 4.31791 11.8155C4.37289 11.7294 4.34779 11.6149 4.26156 11.56C4.17513 11.5055 4.06117 11.5307 4.00609 11.6168C3.76976 11.9874 3.89584 12.2193 3.96107 12.3021C4.09505 12.4712 4.3471 12.5291 4.58812 12.4452C4.61556 12.4357 4.64339 12.4239 4.67083 12.4099V12.8779L4.67054 12.8773C4.66498 12.7801 4.58431 12.7031 4.48587 12.7031C4.38363 12.7031 4.30082 12.7858 4.30082 12.8881C4.30082 13.0088 4.38519 13.2182 4.67083 13.2831V13.6283C4.67083 13.7305 4.75355 13.8133 4.85589 13.8133C4.95824 13.8133 5.04095 13.7306 5.04095 13.6283V13.2831C5.3266 13.2182 5.41097 13.0088 5.41097 12.8881C5.41097 12.7859 5.32845 12.6969 5.2263 12.6969C5.12406 12.6969 5.04163 12.7736 5.04163 12.8758C5.04154 12.8761 5.04095 12.8766 5.04095 12.8766L5.04085 12.4098C5.06829 12.4238 5.09613 12.4356 5.12357 12.4451C5.36458 12.5289 5.61654 12.471 5.75062 12.302C5.81585 12.2193 5.94202 11.9873 5.7056 11.6168C5.65062 11.5303 5.53646 11.5051 5.45013 11.5599C5.3639 11.6149 5.3388 11.7294 5.39378 11.8154C5.48245 11.9549 5.48509 12.041 5.46029 12.0724C5.43099 12.1096 5.34027 12.1293 5.24505 12.0956C5.18363 12.0743 5.04085 12.0005 5.04085 11.7779C5.04085 11.6001 5.12308 11.4371 5.26644 11.3312C5.41009 11.225 5.59603 11.195 5.77523 11.2506C5.99652 11.3182 6.15111 11.5513 6.15111 11.8176C6.1513 12.0083 6.11048 12.2008 6.03284 12.3751ZM6.03284 9.70054C6.11029 9.87476 6.1512 10.0673 6.1512 10.2579C6.1512 10.5243 5.99671 10.7573 5.77532 10.8249C5.59574 10.8809 5.4099 10.8505 5.26654 10.7443C5.12318 10.6383 5.04095 10.4754 5.04095 10.2976C5.04095 10.075 5.18372 10.0013 5.24515 9.97994C5.34036 9.94664 5.43119 9.96578 5.46038 10.0031C5.48519 10.0345 5.48255 10.1206 5.39388 10.2601C5.3389 10.3461 5.364 10.4606 5.45023 10.5156C5.53714 10.5701 5.6512 10.5452 5.7057 10.4587C5.94202 10.0882 5.81595 9.85631 5.75072 9.77349C5.61663 9.60435 5.36468 9.54654 5.12367 9.63043C5.09622 9.6399 5.06839 9.65172 5.04095 9.66568V9.19771C5.04095 9.19781 5.04124 9.19801 5.04124 9.19801C5.04681 9.29547 5.12747 9.37232 5.22591 9.37232C5.32816 9.37232 5.41097 9.28961 5.41097 9.18726C5.41097 9.06656 5.3266 8.85719 5.04095 8.79234V8.44713C5.04095 8.34488 4.95824 8.26207 4.85589 8.26207C4.75355 8.26207 4.67083 8.34479 4.67083 8.44713V8.79234C4.38519 8.85719 4.30082 9.06656 4.30082 9.18726C4.30082 9.28951 4.38334 9.37847 4.48548 9.37847C4.58773 9.37847 4.67015 9.30181 4.67015 9.19957C4.67025 9.19928 4.67083 9.19879 4.67093 9.19849V9.66558C4.64349 9.65162 4.61566 9.6398 4.58822 9.63033C4.3472 9.54654 4.09515 9.60435 3.96117 9.7734C3.89593 9.85611 3.76976 10.0881 4.00619 10.4586C4.06117 10.5447 4.17533 10.5697 4.26166 10.5155C4.34789 10.4605 4.37298 10.346 4.318 10.26C4.22933 10.1205 4.22669 10.0344 4.2515 10.003C4.2806 9.96578 4.37132 9.94664 4.46673 9.97984C4.52816 10.0011 4.67093 10.0749 4.67093 10.2975C4.67093 10.4753 4.58871 10.6383 4.44535 10.7442C4.30169 10.8504 4.11615 10.8808 3.93656 10.8248C3.71527 10.7572 3.56068 10.5241 3.56068 10.2578C3.56068 10.0672 3.6015 9.87467 3.67904 9.70045L4.85599 7.0524L6.03284 9.70054ZM4.67142 5.48649C4.74144 5.432 4.80355 5.36676 4.85589 5.29303C4.90814 5.36676 4.97035 5.4319 5.04037 5.48649C4.97035 5.54098 4.90824 5.60621 4.85589 5.67994C4.80365 5.60621 4.74154 5.54098 4.67142 5.48649Z" fill="#FFE15A"/>
<path d="M27.0434 18.8591C29.5031 18.8591 31.4971 16.8651 31.4971 14.4054C31.4971 11.9457 29.5031 9.95172 27.0434 9.95172C24.5836 9.95172 22.5897 11.9457 22.5897 14.4054C22.5897 16.8651 24.5836 18.8591 27.0434 18.8591Z" fill="#FFE15A"/>
<path d="M27.378 8.72703C27.378 8.9115 27.2284 9.06111 27.0439 9.06111C26.8594 9.06111 26.7098 8.9115 26.7098 8.72703C26.7098 8.54256 27.0439 7.72488 27.0439 7.72488C27.0439 7.72488 27.378 8.54256 27.378 8.72703Z" fill="#FFE15A"/>
<path d="M26.7098 20.0848C26.7098 19.9003 26.8594 19.7507 27.0439 19.7507C27.2284 19.7507 27.378 19.9003 27.378 20.0848C27.378 20.2692 27.0439 21.0869 27.0439 21.0869C27.0439 21.0869 26.7098 20.2693 26.7098 20.0848Z" fill="#FFE15A"/>
<path d="M32.7228 14.7399C32.5383 14.7399 32.3887 14.5903 32.3887 14.4058C32.3887 14.2214 32.5383 14.0717 32.7228 14.0717C32.9072 14.0717 33.7249 14.4058 33.7249 14.4058C33.7249 14.4058 32.9072 14.7399 32.7228 14.7399Z" fill="#FFE15A"/>
<path d="M21.3651 14.0718C21.5496 14.0718 21.6992 14.2214 21.6992 14.4059C21.6992 14.5904 21.5496 14.74 21.3651 14.74C21.1807 14.74 20.363 14.4059 20.363 14.4059C20.363 14.4059 21.1807 14.0718 21.3651 14.0718Z" fill="#FFE15A"/>
<path d="M31.2959 10.6265C31.1654 10.757 30.954 10.757 30.8234 10.6265C30.6928 10.4961 30.6929 10.2846 30.8234 10.1541C30.9539 10.0235 31.7682 9.68161 31.7682 9.68161C31.7682 9.68161 31.4264 10.4961 31.2959 10.6265Z" fill="#FFE15A"/>
<path d="M22.7922 18.1852C22.9227 18.0547 23.1341 18.0547 23.2646 18.1852C23.3952 18.3157 23.3951 18.5271 23.2646 18.6577C23.1342 18.7882 22.3198 19.13 22.3198 19.13C22.3198 19.13 22.6617 18.3158 22.7922 18.1852Z" fill="#FFE15A"/>
<path d="M30.8234 18.6577C30.6929 18.5272 30.6929 18.3158 30.8234 18.1852C30.9538 18.0546 31.1653 18.0547 31.2958 18.1852C31.4264 18.3157 31.7683 19.13 31.7683 19.13C31.7683 19.13 30.9538 18.788 30.8234 18.6577Z" fill="#FFE15A"/>
<path d="M23.2647 10.1541C23.3952 10.2845 23.3952 10.496 23.2647 10.6265C23.1343 10.7571 22.9229 10.757 22.7923 10.6265C22.6617 10.4961 22.3198 9.6817 22.3198 9.6817C22.3198 9.6817 23.1343 10.0237 23.2647 10.1541Z" fill="#FFE15A"/>
<path d="M25.1795 9.03142C25.2501 9.20193 25.1691 9.39724 24.9986 9.46785C24.8281 9.53845 24.6328 9.4575 24.5622 9.28699C24.4916 9.11648 24.4873 8.23328 24.4873 8.23328C24.4873 8.23328 25.1089 8.86091 25.1795 9.03142Z" fill="#FFE15A"/>
<path d="M28.9087 19.7803C28.8381 19.6098 28.919 19.4145 29.0895 19.3439C29.2601 19.2733 29.4554 19.3543 29.526 19.5248C29.5966 19.6953 29.6009 20.5785 29.6009 20.5785C29.6009 20.5785 28.9792 19.9508 28.9087 19.7803Z" fill="#FFE15A"/>
<path d="M32.4184 12.5414C32.2479 12.612 32.0526 12.531 31.982 12.3605C31.9114 12.19 31.9923 11.9947 32.1629 11.9241C32.3334 11.8535 33.2165 11.8492 33.2165 11.8492C33.2165 11.8492 32.5889 12.4707 32.4184 12.5414Z" fill="#FFE15A"/>
<path d="M21.6697 16.2704C21.8402 16.1998 22.0355 16.2807 22.1061 16.4512C22.1768 16.6217 22.0958 16.817 21.9253 16.8876C21.7548 16.9582 20.8716 16.9625 20.8716 16.9625C20.8716 16.9625 21.4992 16.3411 21.6697 16.2704Z" fill="#FFE15A"/>
<path d="M29.5259 9.28707C29.4553 9.45758 29.2599 9.53844 29.0895 9.46793C28.919 9.39733 28.8381 9.20192 28.9087 9.03151C28.9793 8.8611 29.6007 8.23346 29.6007 8.23346C29.6007 8.23346 29.5965 9.11666 29.5259 9.28707Z" fill="#FFE15A"/>
<path d="M24.5621 19.5247C24.6327 19.3542 24.8281 19.2733 24.9985 19.3438C25.169 19.4144 25.2499 19.6098 25.1794 19.7802C25.1088 19.9507 24.4873 20.5783 24.4873 20.5783C24.4873 20.5783 24.4915 19.6952 24.5621 19.5247Z" fill="#FFE15A"/>
<path d="M32.1629 16.8877C31.9924 16.8171 31.9116 16.6216 31.9821 16.4512C32.0527 16.2807 32.2481 16.1999 32.4185 16.2704C32.5889 16.3409 33.2165 16.9625 33.2165 16.9625C33.2165 16.9625 32.3332 16.9584 32.1629 16.8877Z" fill="#FFE15A"/>
<path d="M21.9252 11.9241C22.0957 11.9947 22.1766 12.1901 22.1061 12.3605C22.0354 12.5309 21.84 12.6119 21.6696 12.5414C21.4992 12.4708 20.8716 11.8493 20.8716 11.8493C20.8716 11.8493 21.7549 11.8534 21.9252 11.9241Z" fill="#FFE15A"/>
<path d="M26.2638 8.77095C26.2998 8.95191 26.1823 9.12778 26.0013 9.16372C25.8203 9.19976 25.6445 9.08228 25.6085 8.90122C25.5725 8.72027 25.7406 7.85318 25.7406 7.85318C25.7406 7.85318 26.2278 8.58999 26.2638 8.77095Z" fill="#FFE15A"/>
<path d="M27.8244 20.0408C27.7884 19.8598 27.9059 19.6839 28.0869 19.648C28.268 19.612 28.4438 19.7295 28.4797 19.9105C28.5157 20.0915 28.3476 20.9586 28.3476 20.9586C28.3476 20.9586 27.8604 20.2217 27.8244 20.0408Z" fill="#FFE15A"/>
<path d="M32.6791 13.6255C32.4981 13.6616 32.3222 13.5441 32.2863 13.363C32.2502 13.182 32.3677 13.0062 32.5488 12.9703C32.7297 12.9342 33.5968 13.1024 33.5968 13.1024C33.5968 13.1024 32.86 13.5896 32.6791 13.6255Z" fill="#FFE15A"/>
<path d="M21.409 15.1862C21.5899 15.1501 21.7658 15.2676 21.8018 15.4487C21.8378 15.6297 21.7203 15.8055 21.5393 15.8415C21.3583 15.8775 20.4912 15.7093 20.4912 15.7093C20.4912 15.7093 21.228 15.2221 21.409 15.1862Z" fill="#FFE15A"/>
<path d="M30.4768 9.86969C30.3743 10.0231 30.1668 10.0643 30.0134 9.96177C29.86 9.85924 29.8188 9.65181 29.9213 9.4984C30.0237 9.34498 30.7558 8.85074 30.7558 8.85074C30.7558 8.85074 30.5792 9.71617 30.4768 9.86969Z" fill="#FFE15A"/>
<path d="M23.6113 18.942C23.7138 18.7886 23.9213 18.7474 24.0747 18.85C24.2281 18.9524 24.2693 19.1599 24.1668 19.3133C24.0644 19.4668 23.3323 19.961 23.3323 19.961C23.3323 19.961 23.5089 19.0956 23.6113 18.942Z" fill="#FFE15A"/>
<path d="M31.5802 17.8386C31.4268 17.7362 31.3855 17.5287 31.4881 17.3752C31.5906 17.2218 31.798 17.1806 31.9515 17.2832C32.1049 17.3856 32.5991 18.1176 32.5991 18.1176C32.5991 18.1176 31.7336 17.9411 31.5802 17.8386Z" fill="#FFE15A"/>
<path d="M22.5078 10.9731C22.6612 11.0755 22.7024 11.2831 22.5999 11.4365C22.4974 11.5899 22.2899 11.6311 22.1365 11.5286C21.9831 11.426 21.4888 10.6941 21.4888 10.6941C21.4888 10.6941 22.3545 10.8707 22.5078 10.9731Z" fill="#FFE15A"/>
<path d="M24.1668 9.49839C24.2692 9.6518 24.228 9.85923 24.0747 9.96176C23.9214 10.0643 23.7139 10.023 23.6113 9.86968C23.5089 9.71626 23.3323 8.85083 23.3323 8.85083C23.3323 8.85083 24.0644 9.34507 24.1668 9.49839Z" fill="#FFE15A"/>
<path d="M29.9212 19.3133C29.8188 19.1599 29.86 18.9525 30.0133 18.85C30.1667 18.7475 30.3742 18.7887 30.4767 18.942C30.5792 19.0955 30.7557 19.9609 30.7557 19.9609C30.7557 19.9609 30.0238 19.4666 29.9212 19.3133Z" fill="#FFE15A"/>
<path d="M31.9514 11.5286C31.798 11.631 31.5906 11.5898 31.488 11.4365C31.3856 11.2831 31.4268 11.0756 31.5801 10.9731C31.7335 10.8707 32.599 10.6941 32.599 10.6941C32.599 10.6941 32.1048 11.4261 31.9514 11.5286Z" fill="#FFE15A"/>
<path d="M22.1367 17.2831C22.2901 17.1807 22.4975 17.2219 22.6001 17.3752C22.7025 17.5287 22.6613 17.7361 22.508 17.8386C22.3546 17.9411 21.4891 18.1176 21.4891 18.1176C21.4891 18.1176 21.9833 17.3856 22.1367 17.2831Z" fill="#FFE15A"/>
<path d="M28.4797 8.90122C28.4437 9.08218 28.2679 9.19976 28.0869 9.16372C27.906 9.12769 27.7884 8.95191 27.8244 8.77095C27.8605 8.58999 28.3476 7.85318 28.3476 7.85318C28.3476 7.85318 28.5156 8.72027 28.4797 8.90122Z" fill="#FFE15A"/>
<path d="M25.6085 19.9105C25.6445 19.7295 25.8203 19.612 26.0013 19.648C26.1822 19.684 26.2998 19.8598 26.2638 20.0408C26.2277 20.2217 25.7406 20.9585 25.7406 20.9585C25.7406 20.9585 25.5726 20.0915 25.6085 19.9105Z" fill="#FFE15A"/>
<path d="M32.5485 15.8415C32.3675 15.8054 32.2499 15.6296 32.286 15.4487C32.322 15.2677 32.4978 15.1501 32.6787 15.1862C32.8597 15.2222 33.5965 15.7093 33.5965 15.7093C33.5965 15.7093 32.7294 15.8774 32.5485 15.8415Z" fill="#FFE15A"/>
<path d="M21.5396 12.9703C21.7205 13.0063 21.8381 13.1821 21.8021 13.3631C21.766 13.544 21.5902 13.6616 21.4093 13.6256C21.2283 13.5895 20.4915 13.1024 20.4915 13.1024C20.4915 13.1024 21.3586 12.9343 21.5396 12.9703Z" fill="#FFE15A"/>
<path d="M37.5206 15.5777C37.3901 15.5228 37.241 15.5857 37.1866 15.7154C37.1866 15.716 37.1866 15.716 37.1866 15.716C37.1856 15.7184 37.1805 15.7304 37.1718 15.7509C36.9788 16.2019 36.5794 16.861 36.176 17.481C36.5517 16.2717 36.8952 14.9801 36.9191 14.8893C36.9549 14.7537 36.8747 14.6144 36.7392 14.5776C36.6036 14.5412 36.4641 14.6201 36.4261 14.7551C36.2508 15.3833 35.8923 16.2099 35.5616 16.9097C35.6222 16.1295 35.6337 15.4066 35.6344 15.3543C35.6365 15.2161 35.5282 15.1018 35.39 15.0953C35.26 15.0993 35.1346 15.1941 35.1244 15.3322C34.7973 19.831 30.4683 21.8435 30.0468 22.0287C29.8263 22.0506 28.7991 22.1664 27.8668 22.4901C27.7611 22.5268 27.6711 22.5636 27.5814 22.6001C27.5481 22.5876 27.5124 22.5806 27.4748 22.5829C24.6133 22.7899 22.3316 21.6161 20.6918 19.1012C19.4528 17.201 19.0643 15.2065 19.0604 15.1866C19.0343 15.0479 18.9015 14.9586 18.7622 14.9831C18.6235 15.0094 18.5324 15.1426 18.5587 15.2813C18.569 15.3364 18.7395 16.207 19.2091 17.3528C18.5809 16.3611 18.1431 15.1597 17.989 14.534C17.9858 14.5215 17.9778 14.5121 17.9731 14.5005C17.9659 14.4829 17.9599 14.4651 17.9492 14.4498C17.9417 14.4389 17.9318 14.431 17.9229 14.4215C17.909 14.4068 17.8956 14.3923 17.8785 14.3813C17.8687 14.375 17.8578 14.3718 17.8472 14.3669C17.8283 14.3581 17.8099 14.3494 17.7889 14.3454C17.7743 14.3425 17.7595 14.3444 17.7443 14.3441C17.729 14.3439 17.7145 14.34 17.6988 14.3427C17.6954 14.3433 17.6928 14.3457 17.6894 14.3464C17.686 14.3471 17.6829 14.3461 17.6796 14.3467C17.6659 14.3501 17.6555 14.3587 17.643 14.364C17.627 14.371 17.6107 14.3761 17.5968 14.3858C17.583 14.3953 17.5728 14.4076 17.5613 14.4194C17.5499 14.4311 17.538 14.4415 17.529 14.455C17.5199 14.4688 17.515 14.4843 17.5086 14.4997C17.5024 14.5146 17.4953 14.5287 17.4921 14.5448C17.4888 14.5613 17.4902 14.5783 17.4903 14.5956C17.4903 14.6093 17.4865 14.6225 17.489 14.6366C17.4899 14.6426 17.4919 14.6487 17.493 14.6545V14.6555C17.4933 14.6566 17.4936 14.6581 17.4939 14.6592C17.652 15.5902 18.0285 16.5552 18.369 17.2912C17.8283 16.6776 17.3765 15.9707 17.2163 15.552C17.2117 15.5398 17.2024 15.5313 17.1962 15.5204C17.1867 15.5035 17.1784 15.4862 17.1656 15.4722C17.1565 15.4623 17.1455 15.4558 17.1352 15.4475C17.1196 15.435 17.1049 15.4224 17.0869 15.4138C17.0754 15.4084 17.0629 15.4066 17.0507 15.4028C17.0318 15.3971 17.0136 15.3909 16.9936 15.3896C16.9778 15.3885 16.9622 15.3925 16.9463 15.3946C16.9315 15.3964 16.917 15.3946 16.9023 15.3992C16.8995 15.4001 16.8976 15.4023 16.8949 15.4033C16.8922 15.4042 16.8895 15.4036 16.8867 15.4046C16.8728 15.4099 16.863 15.4202 16.8506 15.4275C16.836 15.4361 16.8205 15.4432 16.8081 15.4544C16.7954 15.4658 16.7866 15.4799 16.7767 15.4935C16.7672 15.5063 16.7566 15.5177 16.7496 15.532C16.7423 15.5469 16.7396 15.5631 16.7354 15.5793C16.7312 15.595 16.7256 15.6096 16.7245 15.6261C16.7233 15.6426 16.7274 15.6591 16.7296 15.6758C16.7314 15.6903 16.7295 15.7046 16.734 15.7189C17.0119 16.6154 17.6803 17.682 18.2039 18.4334C17.7676 18.0971 17.4469 17.7334 17.3538 17.6237C17.3437 17.6118 17.3339 17.5998 17.3238 17.5878C17.2338 17.4795 17.0747 17.4641 16.9656 17.5524C16.8569 17.6412 16.8398 17.8009 16.9277 17.91C16.9325 17.9161 16.9517 17.94 16.9837 17.9774C17.3669 18.4334 17.7844 18.8588 18.1626 19.2181L17.6452 18.9976C17.5272 18.9467 17.3886 18.9926 17.324 19.1048C17.2594 19.2171 17.2886 19.3592 17.3921 19.4371C17.4425 19.4745 18.3587 20.1589 19.1518 20.5635C19.077 20.568 18.9893 20.5625 18.891 20.555C18.7711 20.5435 18.6531 20.6293 18.6239 20.751C18.5952 20.8732 18.6591 20.998 18.7751 21.0458C18.7946 21.0539 19.0363 21.1536 19.3348 21.2598C19.2651 21.2882 19.2098 21.3466 19.1868 21.4224C19.1524 21.5357 19.2008 21.6584 19.3035 21.7172C19.3303 21.7328 19.6913 21.9398 20.1381 22.1233C20.1262 22.1417 20.1164 22.1617 20.1091 22.1836C20.0741 22.2909 20.1141 22.4086 20.2071 22.473C20.2847 22.5263 22.0195 23.7037 24.0457 23.7037C24.1787 23.7037 24.3131 23.6987 24.4482 23.6877C24.5887 23.6767 24.6937 23.5536 24.6825 23.4128C24.6713 23.2721 24.5493 23.1659 24.4074 23.1788C23.1346 23.2827 21.9083 22.8047 21.179 22.4395C21.2753 22.416 21.3307 22.3946 21.3444 22.3891C21.4569 22.3432 21.5218 22.2249 21.4998 22.1057C21.4778 21.9866 21.3751 21.8992 21.2536 21.8966C20.9575 21.8906 20.5475 21.7464 20.1942 21.5917C20.3276 21.5249 20.4056 21.461 20.4124 21.4555C20.4892 21.3912 20.5217 21.2884 20.4955 21.1916C20.4691 21.0954 20.3887 21.023 20.29 21.0071C20.1815 20.9891 20.0463 20.9541 19.9047 20.9113C20.0424 20.832 20.101 20.7447 20.1234 20.7002C20.1589 20.6294 20.1597 20.5465 20.1257 20.4752C20.0915 20.404 20.0265 20.3525 19.949 20.336C19.8822 20.3215 19.8065 20.2971 19.7248 20.2652C19.7397 20.2502 19.7535 20.2332 19.7646 20.2138C19.8297 20.1036 19.8028 19.9619 19.7018 19.8826C19.6966 19.8786 19.4983 19.723 19.1981 19.464C19.2458 19.4465 19.2879 19.4141 19.3184 19.3703C19.3827 19.2775 19.3783 19.1533 19.3076 19.0654C19.3019 19.0583 19.1034 18.8087 18.8298 18.4296C18.9201 18.4998 19.0103 18.5714 19.1006 18.6294C19.1431 18.6564 19.1911 18.6699 19.2388 18.6699C19.3034 18.6699 19.3672 18.6455 19.4163 18.598C19.4365 18.5785 19.4523 18.556 19.4648 18.5321C19.6198 18.6976 19.7826 18.8479 19.9536 18.9761C19.9759 18.9928 20.0029 18.9925 20.0279 19.0009C20.1004 19.1224 20.1758 19.2441 20.2549 19.3658C21.8059 21.7523 23.993 23.0306 26.616 23.1074C26.3745 23.254 26.1123 23.4056 25.6971 23.5673C25.6065 23.6027 25.5264 23.638 25.446 23.6735C25.4071 23.6811 25.3707 23.6952 25.3403 23.7193C24.6157 24.0547 24.3157 24.3862 24.194 24.618C24.0725 24.8485 24.1773 25.0849 24.3257 25.2077C24.3718 25.2455 24.4305 25.265 24.4892 25.265C24.5297 25.265 24.5701 25.256 24.6067 25.2375C24.6971 25.1926 24.7574 25.0973 24.7534 24.9971C24.7639 24.9857 24.8083 24.9488 24.9474 24.9442C25.0489 24.9357 25.2625 24.9586 25.5117 24.9786C25.7488 24.9981 26.0332 25.0203 26.3355 25.0358C26.1464 25.2563 25.9265 25.5119 25.9265 25.5119C25.8605 25.5887 25.846 25.6974 25.8899 25.7887C25.9341 25.8805 26.0292 25.9374 26.1289 25.9338C26.3307 25.9268 26.4679 25.9228 26.5579 25.9209C26.6364 26.0238 26.7328 26.0646 26.7949 26.0805C26.9706 26.1254 27.1457 26.0551 27.2775 25.9718C27.3773 26.0437 27.4771 26.0741 27.5562 26.0856C27.7345 26.11 27.8997 26.0581 28.0191 25.9993C28.1428 26.0791 28.264 26.0995 28.3564 26.0995C28.3577 26.0995 28.3592 26.0995 28.3606 26.0995C28.5599 26.0986 28.7344 26.0023 28.8577 25.9079C28.9668 25.9728 29.071 25.9937 29.1515 25.9973C29.3344 26.0037 29.486 25.9334 29.5868 25.8675C29.9468 25.9398 30.257 25.7702 30.4621 25.5831C30.5556 25.6375 30.6446 25.651 30.7155 25.6475C30.8978 25.6411 31.0367 25.5302 31.1259 25.431C31.534 25.4803 31.8268 25.405 31.9961 25.204C32.0883 25.0948 32.1258 24.9716 32.136 24.8593C33.2682 24.8529 33.3707 24.2347 33.379 24.1583C33.3864 24.0889 33.3653 24.0197 33.3202 23.9663C33.2753 23.913 33.2101 23.88 33.1406 23.876L30.1722 23.6975C30.048 23.6885 29.9372 23.7718 29.9084 23.8931C29.9078 23.8951 29.8572 24.0836 29.6989 24.2344C29.4858 24.4378 29.1427 24.5453 28.7696 24.6022C28.771 24.568 28.7662 24.5332 28.7531 24.4993C28.7022 24.3676 28.5541 24.3037 28.4228 24.3532C27.81 24.591 26.8179 24.5611 26.0417 24.5071C26.1607 24.4098 26.3041 24.3134 26.4186 24.2505C26.5154 24.1972 26.5674 24.0879 26.5469 23.9792C26.532 23.9002 26.4749 23.8453 26.4059 23.8099C26.6218 23.7009 26.7987 23.5956 26.9666 23.4933C27.258 23.3148 27.5333 23.1465 28.0346 22.9725C29.0024 22.6363 30.1224 22.534 30.1337 22.533C30.1591 22.5309 30.1841 22.5245 30.2077 22.515C30.2475 22.4985 33.4067 21.175 34.8951 18.1213C34.8755 18.2136 34.8547 18.298 34.8319 18.3717C34.793 18.4975 34.8558 18.6317 34.977 18.6825C35.0708 18.7219 35.1773 18.7014 35.2495 18.6346C35.1554 18.8826 35.0704 19.0776 35.0009 19.1928C34.9301 19.3101 34.9643 19.4623 35.0783 19.538C35.105 19.5555 35.1337 19.5674 35.163 19.5745C35.0478 19.7431 34.931 19.9027 34.8145 20.0489C34.737 20.1461 34.7415 20.2849 34.8225 20.3767C34.6225 20.5862 34.4452 20.7588 34.3104 20.8686C34.2224 20.9399 34.1937 21.0591 34.2341 21.161C34.1042 21.2353 33.9974 21.2877 33.9234 21.3101C33.7992 21.3475 33.7229 21.4727 33.7464 21.6004C33.7586 21.6678 33.7965 21.7247 33.8488 21.7621C33.6926 21.8039 33.5217 21.8444 33.3362 21.8812C33.2317 21.9021 33.151 21.9855 33.134 22.0907C33.1171 22.1959 33.167 22.3007 33.2593 22.3536C33.2673 22.3581 33.3546 22.4075 33.4881 22.4643C32.994 22.6633 32.1118 22.9233 30.664 23.066C30.5238 23.0799 30.4211 23.2052 30.435 23.3454C30.4487 23.4856 30.57 23.5829 30.7144 23.5748C33.4627 23.303 34.3113 22.6151 34.346 22.5856C34.4253 22.5192 34.4567 22.411 34.4253 22.3123C34.4044 22.2469 34.3585 22.1941 34.2995 22.1635C35.1775 21.8872 35.5545 21.5813 35.5742 21.5649C35.6705 21.485 35.6947 21.3469 35.6313 21.2386C35.5674 21.1303 35.4345 21.0834 35.3185 21.1303C35.2859 21.1428 35.2338 21.1557 35.1678 21.1687C35.7571 20.7652 36.3826 20.2846 36.6577 20.0702C36.706 20.0343 36.75 19.9998 36.7886 19.9673C36.8955 19.8776 36.9104 19.7188 36.8222 19.6107C36.7347 19.503 36.5753 19.4849 36.466 19.5712C36.4261 19.6027 36.3846 19.6351 36.3418 19.6685C36.2148 19.7628 36.0524 19.8696 35.8753 19.9792C36.544 19.22 37.2172 18.3968 37.4095 18.1604C37.427 18.1389 37.4442 18.1175 37.4617 18.096C37.55 17.9863 37.5328 17.8256 37.423 17.7374C37.3129 17.6476 37.1521 17.6661 37.064 17.7752L37.0634 17.7758L37.0632 17.7764C37.0585 17.7819 37.0369 17.8088 37.0004 17.8538C36.799 18.0997 36.5869 18.3377 36.3776 18.5601C37.0588 17.3254 37.5747 16.1101 37.6503 15.93C37.653 15.9236 37.6555 15.9171 37.6583 15.9105C37.7124 15.7813 37.6508 15.6316 37.5206 15.5777ZM25.5489 24.1877L25.6186 24.1968C25.5331 24.2768 25.4635 24.3664 25.4082 24.459C25.2869 24.4493 25.1768 24.4407 25.0906 24.4369C25.2095 24.3592 25.3624 24.2749 25.5489 24.1877Z" fill="#FFE15A"/>
</svg>
