<svg width="51" height="33" viewBox="0 0 51 33" fill="none" xmlns="http://www.w3.org/2000/svg">
<path d="M33.6568 0.222992H49.4614C49.9375 0.222992 50.3235 0.609027 50.3235 1.0851V32.1196C50.3235 32.5956 49.9375 32.9817 49.4614 32.9817H33.6568V0.222992Z" fill="#FF4B55"/>
<path d="M33.6575 0.223389H16.9905V32.9822H33.6575V0.223389Z" fill="#41479B"/>
<path d="M1.18547 0.222992H16.9901V32.9816H1.18547C0.709399 32.9816 0.323364 32.5956 0.323364 32.1195V1.085C0.323364 0.608929 0.709399 0.222992 1.18547 0.222992Z" fill="#FF4B55"/>
<path d="M8.69059 13.7729C7.38776 13.7729 6.27106 12.9879 5.77906 11.8667C5.77877 11.8838 5.77399 11.8997 5.77399 11.9168C5.77399 13.5276 7.07985 14.8334 8.69059 14.8334C10.3013 14.8334 11.6071 13.5276 11.6071 11.9168C11.6071 11.8997 11.6023 11.8838 11.602 11.8668C11.11 12.9879 9.99332 13.7729 8.69059 13.7729Z" fill="#F9CF02"/>
<path d="M8.69061 13.2428C9.86206 13.2428 10.8117 12.2932 10.8117 11.1217C10.8117 9.95029 9.86206 9.00064 8.69061 9.00064C7.51917 9.00064 6.56952 9.95029 6.56952 11.1217C6.56952 12.2932 7.51917 13.2428 8.69061 13.2428Z" fill="#F9CF02"/>
<path d="M7.36481 7.14448C7.36481 7.87661 7.95836 8.47016 8.69049 8.47016C9.42262 8.47016 10.0162 7.87661 10.0162 7.14448C10.0162 6.6142 9.68473 6.5479 9.68473 6.34907C9.68473 6.15024 9.88356 5.8851 9.4859 5.55366C9.68473 5.8851 9.35338 5.95141 9.35338 6.28276C9.35338 6.61411 9.4859 6.6142 9.4859 6.87934C9.4859 7.02583 9.36715 7.14438 9.22086 7.14438C9.07438 7.14438 8.95582 7.02563 8.95582 6.87934C8.95582 6.6143 9.22086 6.34907 9.22086 5.95131C9.22086 5.55356 9.15455 5.42104 8.95582 5.08959C8.75699 4.75815 8.42555 4.49301 8.69078 4.22787C8.29303 4.36039 8.49196 4.89067 8.49196 5.22221C8.49196 5.55366 8.22692 5.75248 8.22692 6.15024C8.22692 6.54799 8.42574 6.6142 8.42574 6.87934C8.42574 7.02583 8.30699 7.14438 8.16071 7.14438C8.01442 7.14438 7.89567 7.02563 7.89567 6.87934C7.89567 6.6143 8.02819 6.6143 8.02819 6.28276C8.02819 5.95122 7.69674 5.885 7.89567 5.55366C7.49791 5.8851 7.69684 6.15024 7.69684 6.34907C7.69625 6.5479 7.36481 6.61411 7.36481 7.14448Z" fill="#F9CF02"/>
<path d="M2.8576 15.5826V27.8715C2.8576 27.9924 2.95565 28.0904 3.07645 28.0904H5.29003C5.41093 28.0904 5.50887 27.9923 5.50887 27.8715V15.5826C5.50887 15.4618 5.41083 15.3638 5.29003 15.3638H3.07645C2.95565 15.3637 2.8576 15.4618 2.8576 15.5826Z" fill="#F9CF02"/>
<path d="M11.8723 15.5826V27.8715C11.8723 27.9924 11.9704 28.0904 12.0912 28.0904H14.3047C14.4256 28.0904 14.5236 27.9923 14.5236 27.8715V15.5826C14.5236 15.4618 14.4255 15.3638 14.3047 15.3638H12.0912C11.9703 15.3637 11.8723 15.4618 11.8723 15.5826Z" fill="#F9CF02"/>
<path d="M6.03937 17.7036V18.3264C6.03937 18.4473 6.13741 18.5453 6.25822 18.5453H11.1232C11.2441 18.5453 11.342 18.4472 11.342 18.3264V17.7036C11.342 17.5828 11.244 17.4848 11.1232 17.4848H6.25822C6.13732 17.4848 6.03937 17.5828 6.03937 17.7036Z" fill="#F9CF02"/>
<path d="M6.03937 25.1276V25.7504C6.03937 25.8713 6.13741 25.9692 6.25822 25.9692H11.1232C11.2441 25.9692 11.342 25.8712 11.342 25.7504V25.1276C11.342 25.0067 11.244 24.9088 11.1232 24.9088H6.25822C6.13732 24.9088 6.03937 25.0067 6.03937 25.1276Z" fill="#F9CF02"/>
<path d="M6.43442 15.3637H10.9469C11.058 15.3637 11.0984 15.5099 11.0033 15.567L8.85971 16.8533C8.75571 16.9157 8.62573 16.9157 8.52192 16.8533L6.37817 15.567C6.28296 15.5099 6.32348 15.3637 6.43442 15.3637Z" fill="#F9CF02"/>
<path d="M6.43444 26.4996H10.9469C11.058 26.4996 11.0984 26.6458 11.0033 26.703L8.85954 27.9891C8.75554 28.0515 8.62556 28.0515 8.52175 27.9891L6.3781 26.7029C6.28298 26.6457 6.32351 26.4996 6.43444 26.4996Z" fill="#F9CF02"/>
<path d="M8.94965 19.0963C8.86605 19.0883 8.78509 19.071 8.69945 19.071C7.24135 19.071 6.05511 20.2573 6.05511 21.7154C6.05511 22.5808 6.47787 23.3425 7.12377 23.8231C7.19808 23.8784 7.29633 23.7985 7.26019 23.713C7.18275 23.5295 7.1392 23.3285 7.1392 23.1167C7.1392 22.2549 7.84164 21.5541 8.70424 21.5567C9.15765 21.5581 9.59232 21.3341 9.793 20.9275C10.2081 20.0866 9.7016 19.2507 8.94965 19.0963ZM8.69945 20.8427C8.40746 20.8427 8.17054 20.606 8.17054 20.3138C8.17054 20.0218 8.40736 19.785 8.69945 19.785C8.99144 19.785 9.22826 20.0217 9.22826 20.3138C9.22816 20.606 8.99144 20.8427 8.69945 20.8427Z" fill="#F9CF02"/>
<path d="M10.275 19.6076C10.2007 19.5523 10.1024 19.6323 10.1385 19.7177C10.2161 19.9012 10.2595 20.1022 10.2595 20.3139C10.2595 21.1758 9.557 21.8767 8.6945 21.874C8.24108 21.8726 7.80632 22.0966 7.60573 22.5032C7.19079 23.3442 7.69733 24.1802 8.44928 24.3344C8.53288 24.3424 8.61384 24.3597 8.69948 24.3597C10.1575 24.3597 11.3438 23.1734 11.3438 21.7153C11.3436 20.85 10.9209 20.0883 10.275 19.6076ZM8.69948 23.6457C8.40749 23.6457 8.17057 23.409 8.17057 23.1168C8.17057 22.8248 8.40739 22.588 8.69948 22.588C8.99147 22.588 9.22829 22.8247 9.22829 23.1168C9.22819 23.4089 8.99147 23.6457 8.69948 23.6457Z" fill="#F9CF02"/>
</svg>
