<svg width="51" height="33" viewBox="0 0 51 33" fill="none" xmlns="http://www.w3.org/2000/svg">
<path d="M33.9378 0.222992H49.7424C50.2185 0.222992 50.6045 0.609027 50.6045 1.0851V32.1196C50.6045 32.5956 50.2185 32.9817 49.7424 32.9817H33.9378V0.222992Z" fill="#FF4B55"/>
<path d="M33.9385 0.223389H17.2715V32.9822H33.9385V0.223389Z" fill="#FFE15A"/>
<path d="M1.46654 0.222992H17.2711V32.9816H1.46654C0.990466 32.9816 0.604431 32.5956 0.604431 32.1195V1.085C0.604431 0.608929 0.990466 0.222992 1.46654 0.222992Z" fill="#41479B"/>
<path d="M28.6593 22.5104L29.0881 22.1608L27.1339 19.764L26.7051 20.1137L28.6593 22.5104Z" fill="#FFCD5A"/>
<path d="M27.349 21.344L28.2067 20.6453L27.3471 19.5901L26.4893 20.2888L27.349 21.344Z" fill="#FFBE5A"/>
<path d="M24.7436 20.1138L24.3148 19.7642L22.3606 22.1609L22.7894 22.5106L24.7436 20.1138Z" fill="#FFCD5A"/>
<path d="M24.9574 20.2889L24.0997 19.5901L23.24 20.6454L24.0978 21.3441L24.9574 20.2889Z" fill="#FFBE5A"/>
<path d="M25.0322 20.6635L23.649 23.4298L25.5854 24.8129V20.9401L25.0322 20.6635Z" fill="#FFE15A"/>
<path d="M26.1386 20.6635L27.5217 23.4298L25.5853 24.8129V20.9401L26.1386 20.6635Z" fill="#FFCD5A"/>
<path d="M21.7127 20.6634V13.471H22.5426C22.5426 13.471 22.5426 18.1738 22.5426 19.0036C22.5426 19.8335 21.7127 20.6634 21.7127 20.6634Z" fill="#FFBE5A"/>
<path d="M21.1591 22.0466V13.471H21.989C21.989 13.471 21.989 19.5569 21.989 20.3868C21.9889 21.2166 21.1591 22.0466 21.1591 22.0466Z" fill="#FFCD5A"/>
<path d="M20.6061 23.1532V13.4712H21.436C21.436 13.4712 21.436 20.6635 21.436 21.4934C21.436 22.3232 20.6061 23.1532 20.6061 23.1532Z" fill="#FFE15A"/>
<path d="M22.5424 13.7477C22.5424 13.7477 22.5424 17.6896 22.5424 19.0037C22.5424 20.3869 24.548 20.2024 25.5853 21.2167C26.6227 20.2023 28.6282 20.3868 28.6282 19.0037C28.6282 17.6897 28.6282 13.7477 28.6282 13.7477H22.5424Z" fill="#FF4B55"/>
<path d="M22.5424 16.7907C22.5424 17.6665 22.5424 18.5161 22.5424 19.0038C22.5424 20.387 24.548 20.2025 25.5853 21.2168C26.6227 20.2024 28.6282 20.3869 28.6282 19.0037C28.6282 18.5161 28.6282 17.6664 28.6282 16.7906L22.5424 16.7907Z" fill="#41479B"/>
<path d="M25.5849 20.3868L24.755 19.8336V19.5569L25.0317 19.2804V17.6205L24.2018 17.0673L25.0317 15.9607H25.3082L25.5849 16.2375L25.8615 15.9607H26.1382L26.9681 17.0673L26.1382 17.6205V19.2804L26.4148 19.5569V19.8336L25.5849 20.3868Z" fill="#FFE15A"/>
<path d="M24.4783 14.0244C24.4783 14.0244 23.3718 14.301 23.3718 15.4076C23.3718 16.5141 24.4783 17.0674 24.4783 17.0674L25.0315 16.2375C23.3717 15.6841 24.4783 14.0244 24.4783 14.0244Z" fill="#FFE15A"/>
<path d="M26.6913 14.0244C26.6913 14.0244 27.7978 14.301 27.7978 15.4076C27.7978 16.5141 26.6913 17.0674 26.6913 17.0674L26.1381 16.2375C27.7978 15.6841 26.6913 14.0244 26.6913 14.0244Z" fill="#FFE15A"/>
<path d="M22.8185 16.7907L23.3718 17.0673L23.9251 16.7907L23.3718 16.514L22.8185 16.7907Z" fill="#FFE15A"/>
<path d="M27.2448 16.7907L27.798 17.0673L28.3513 16.7907L27.798 16.514L27.2448 16.7907Z" fill="#FFE15A"/>
<path d="M25.5849 14.1627L25.7861 14.3687L26.0739 14.3652L26.0706 14.6531L26.2765 14.8543L26.0706 15.0553L26.0739 15.3432L25.7861 15.3398L25.5849 15.5459L25.3839 15.3398L25.0959 15.3432L25.0994 15.0553L24.8934 14.8543L25.0994 14.6531L25.0959 14.3652L25.3839 14.3687L25.5849 14.1627Z" fill="#FFE15A"/>
<path d="M23.707 17.9988L23.9064 18.2207L24.1837 18.1107C24.3274 18.0538 24.4621 18.2099 24.3848 18.3437L24.2355 18.602L24.4258 18.8319C24.5243 18.9509 24.4174 19.1274 24.2663 19.0952L23.9745 19.0329L23.8148 19.2849C23.7321 19.4154 23.5312 19.3682 23.5151 19.2145L23.484 18.9177L23.1951 18.8437C23.0453 18.8053 23.0282 18.5998 23.1693 18.5371L23.4419 18.416L23.4231 18.1182C23.4136 17.9637 23.6037 17.8839 23.707 17.9988Z" fill="#FFE15A"/>
<path d="M27.3906 18.6294C27.4517 18.3148 27.7113 18.092 28.0139 18.0584C27.9518 18.025 27.8858 17.9974 27.813 17.9833C27.4255 17.9082 27.0505 18.1615 26.9754 18.5489C26.9003 18.9364 27.1534 19.3114 27.5409 19.3865C27.6138 19.4006 27.6854 19.3997 27.7553 19.3919C27.4872 19.2477 27.3297 18.9441 27.3906 18.6294Z" fill="#FFE15A"/>
<path d="M24.4784 13.7477L25.0316 10.9814L23.9252 10.1515L24.2018 9.87487H24.7551C24.7551 9.87487 25.0317 9.59821 25.5849 9.59821C26.1382 9.59821 26.6914 9.87487 26.6914 10.7047C26.6914 11.5344 26.968 13.7475 26.968 13.7475H24.4784V13.7477Z" fill="#FFE15A"/>
<path d="M22.5425 12.6411C21.9314 12.6411 21.4361 13.1366 21.4361 13.7476H23.6492C23.6491 13.1366 23.1536 12.6411 22.5425 12.6411Z" fill="#FFAA5A"/>
<path d="M22.2658 13.7477H20.6061V11.9064C20.6061 11.5483 20.8964 11.2581 21.2544 11.2581H21.6175C21.9756 11.2581 22.2658 11.5484 22.2658 11.9064V13.7477Z" fill="#FFBE5A"/>
<path d="M29.4576 20.6635V13.4712H28.6277C28.6277 13.4712 28.6277 18.1739 28.6277 19.0037C28.6277 19.8337 29.4576 20.6635 29.4576 20.6635Z" fill="#FFBE5A"/>
<path d="M30.0115 22.0466V13.471H29.1816C29.1816 13.471 29.1816 19.5569 29.1816 20.3868C29.1816 21.2166 30.0115 22.0466 30.0115 22.0466Z" fill="#FFCD5A"/>
<path d="M30.5647 23.1532V13.4712H29.7348C29.7348 13.4712 29.7348 20.6635 29.7348 21.4934C29.7347 22.3232 30.5647 23.1532 30.5647 23.1532Z" fill="#FFE15A"/>
<path d="M28.6283 12.6411C29.2394 12.6411 29.7348 13.1366 29.7348 13.7476H27.5217C27.5218 13.1366 28.0172 12.6411 28.6283 12.6411Z" fill="#FFAA5A"/>
<path d="M28.9048 13.7477H30.5646V11.9064C30.5646 11.5483 30.2743 11.2581 29.9163 11.2581H29.5533C29.1952 11.2581 28.9049 11.5484 28.9049 11.9064L28.9048 13.7477Z" fill="#FFBE5A"/>
<path d="M32.1082 16.8986L31.7538 16.6828L27.88 23.0443L28.2344 23.2602L32.1082 16.8986Z" fill="#FFAA5A"/>
<path d="M28.7299 22.894L29.4208 22.0297L28.7449 21.4894L28.0539 22.3537L28.7299 22.894Z" fill="#FFE15A"/>
<path d="M32.2222 16.9703L31.6315 16.6107L30.8017 17.9741L31.3924 18.3337L32.2222 16.9703Z" fill="#FFCD5A"/>
<path d="M23.4803 23.0385L19.5755 16.9983L19.3432 17.1485L23.2479 23.1887L23.4803 23.0385Z" fill="#73AF00"/>
<path d="M22.0318 19.8627C21.9326 19.9752 21.8668 20.1458 21.8502 20.3425C21.7138 20.2048 21.5571 20.1171 21.4112 20.0935C21.3728 20.2362 21.3884 20.4151 21.458 20.596C21.2718 20.5303 21.0894 20.5203 20.9461 20.5646C20.9864 20.7685 21.1526 20.9898 21.4071 21.1417C21.6616 21.2936 21.9354 21.3346 22.1339 21.2733L22.1907 21.2366C22.3281 21.0806 22.403 20.8143 22.3691 20.5199C22.3348 20.2255 22.2011 19.9832 22.0318 19.8627Z" fill="#73AF00"/>
<path d="M22.1621 21.5323C22.3149 21.5323 22.4388 21.4084 22.4388 21.2556C22.4388 21.1028 22.3149 20.9789 22.1621 20.9789C22.0093 20.9789 21.8854 21.1028 21.8854 21.2556C21.8854 21.4084 22.0093 21.5323 22.1621 21.5323Z" fill="#FF4B55"/>
<path d="M20.9801 18.2365C20.8809 18.349 20.8151 18.5196 20.7985 18.7162C20.662 18.5785 20.5054 18.4908 20.3595 18.4673C20.321 18.61 20.3366 18.7889 20.4063 18.9698C20.22 18.9041 20.0376 18.8941 19.8943 18.9384C19.9347 19.1423 20.1008 19.3636 20.3554 19.5155C20.6099 19.6674 20.8836 19.7084 21.0821 19.6471L21.139 19.6104C21.2764 19.4544 21.3513 19.1881 21.3173 18.8937C21.2831 18.5991 21.1494 18.3569 20.9801 18.2365Z" fill="#73AF00"/>
<path d="M21.1113 19.9063C21.2641 19.9063 21.3879 19.7824 21.3879 19.6296C21.3879 19.4768 21.2641 19.353 21.1113 19.353C20.9585 19.353 20.8346 19.4768 20.8346 19.6296C20.8346 19.7824 20.9585 19.9063 21.1113 19.9063Z" fill="#FF4B55"/>
<path d="M19.929 16.6103C19.8298 16.7228 19.764 16.8934 19.7474 17.0901C19.6109 16.9524 19.4543 16.8647 19.3084 16.8411C19.2699 16.9838 19.2855 17.1627 19.3552 17.3436C19.1689 17.278 18.9865 17.2679 18.8433 17.3122C18.8836 17.5161 19.0497 17.7374 19.3043 17.8893C19.5588 18.0412 19.8325 18.0823 20.0311 18.0209L20.0879 17.9842C20.2253 17.8283 20.3002 17.5619 20.2662 17.2675C20.2318 16.973 20.0982 16.7307 19.929 16.6103Z" fill="#73AF00"/>
<path d="M20.0596 18.2803C20.2124 18.2803 20.3362 18.1564 20.3362 18.0036C20.3362 17.8509 20.2124 17.727 20.0596 17.727C19.9068 17.727 19.7829 17.8509 19.7829 18.0036C19.7829 18.1564 19.9068 18.2803 20.0596 18.2803Z" fill="#FF4B55"/>
<path d="M23.3938 22.3548L22.7029 21.4905L22.027 22.0308L22.7179 22.8951L23.3938 22.3548Z" fill="#FFE15A"/>
<path d="M24.2028 9.04562H23.9255V10.982H24.2028V9.04562Z" fill="#FFE15A"/>
<path d="M24.478 9.32199H23.6481V9.59865H24.478V9.32199Z" fill="#FFE15A"/>
<path d="M23.9257 10.1515L24.7555 10.774V9.87494H24.2023L23.9257 10.1515Z" fill="#FF875A"/>
<path d="M24.2021 9.04501V9.32167H24.4788V9.59833H24.2021V9.87499H24.7553C24.7553 9.87499 25.032 9.59833 25.5852 9.59833C26.1384 9.59833 26.6917 9.87499 26.6917 10.7048C26.6917 11.5347 26.9683 13.7476 26.9683 13.7476H27.5215C27.5215 13.1365 28.0169 12.6412 28.628 12.6412C28.7241 12.6412 28.8157 12.6572 28.9046 12.6804V12.088C28.9046 11.6297 29.2762 11.2581 29.7345 11.2581C30.1928 11.2581 30.5644 11.6297 30.5644 12.088V13.4712V13.7478V18.6332L30.9216 18.0464L30.8036 17.9745L31.6335 16.611L31.7515 16.6829L31.9288 16.7909L32.2242 16.9707L31.3943 18.3342L31.2761 18.2623L30.5644 19.4316V23.1536C30.5644 23.1536 29.9039 22.4912 29.7625 21.7584C29.6614 21.6285 29.545 21.4629 29.4425 21.2748L29.1259 21.7949L29.4203 22.0302L28.7293 22.8945L28.5459 22.7478L28.2332 23.2616L27.8788 23.0458L28.2191 22.4866L28.0539 22.3545L28.2891 22.06L27.5632 21.1698L27.3487 21.3446L26.7033 20.5526C26.5315 20.6217 26.3617 20.6975 26.1983 20.7843L27.5212 23.4303L25.5848 24.8135L23.6484 23.4303L24.9713 20.7843C24.8737 20.7324 24.7745 20.6833 24.673 20.6386L24.0977 21.3446L23.8832 21.1698L23.1573 22.06L23.3925 22.3545L23.1576 22.5423L23.4787 23.0389L23.2463 23.1891L22.9404 22.7159L22.717 22.8944L22.0261 22.0301L22.3366 21.7819L22.172 21.5273C22.1681 21.5274 22.1643 21.5275 22.1604 21.5275C22.07 21.5275 21.9814 21.4872 21.9288 21.4057C21.9063 21.371 21.8942 21.3331 21.8888 21.2948C21.8368 21.2917 21.784 21.2843 21.7292 21.2712C21.6263 21.4607 21.5091 21.6276 21.4075 21.7584C21.2662 22.4913 20.6055 23.1536 20.6055 23.1536V19.6248C20.5219 19.5985 20.4377 19.5651 20.3547 19.5156C20.1002 19.3637 19.934 19.1424 19.8937 18.9386C19.9519 18.9206 20.0165 18.9116 20.0852 18.9116C20.1858 18.9116 20.2952 18.931 20.4057 18.9699C20.3697 18.8762 20.3487 18.7834 20.3418 18.6955L20.0697 18.2746C20.0658 18.2747 20.062 18.2748 20.0581 18.2748C19.9676 18.2748 19.8791 18.2345 19.8264 18.1529C19.804 18.1182 19.7919 18.0804 19.7864 18.0421C19.6333 18.0329 19.4655 17.986 19.3037 17.8895C19.0492 17.7376 18.883 17.5163 18.8426 17.3125C18.9008 17.2945 18.9655 17.2855 19.0341 17.2855C19.1347 17.2855 19.2441 17.3049 19.3546 17.3438C19.285 17.1629 19.2694 16.9841 19.3079 16.8414C19.4538 16.8649 19.6104 16.9526 19.7468 17.0903C19.7634 16.8936 19.8293 16.723 19.9284 16.6105C20.0977 16.731 20.2313 16.9733 20.2653 17.2679C20.287 17.4552 20.2608 17.6273 20.2062 17.7708C20.2389 17.7916 20.2685 17.8181 20.2909 17.8528C20.3459 17.9379 20.3439 18.0401 20.3019 18.1246L20.574 18.5455C20.5845 18.5514 20.5949 18.5584 20.6054 18.5649V13.7481V13.4715V12.0883C20.6054 11.63 20.977 11.2584 21.4353 11.2584C21.8936 11.2584 22.2652 11.63 22.2652 12.0883V12.6807C22.3541 12.6576 22.4457 12.6415 22.5419 12.6415C23.153 12.6415 23.6483 13.1369 23.6483 13.7479H24.4782L25.0314 10.9816L24.7547 10.7742L24.2015 10.3593V10.9817H23.9249V9.59852H23.6482V9.32186H23.9249V9.0452H24.2026L24.2021 9.04501ZM28.6427 21.6176L28.7449 21.4897L28.7993 21.5332L29.2452 20.8007C29.2063 20.6652 29.1814 20.5263 29.1814 20.3869C29.1814 20.3733 29.1814 20.3547 29.1814 20.3383C28.94 20.0207 28.6282 19.5126 28.6282 19.0037C28.6282 19.5863 28.2706 19.8898 27.7811 20.123L28.2069 20.6456L27.9925 20.8202L28.6427 21.6176ZM22.5543 21.6078L22.7022 21.4896L22.8043 21.6175L23.4545 20.8199L23.2402 20.6453L23.5922 20.2133C23.0013 19.9665 22.5422 19.6641 22.5422 19.0036C22.5422 19.374 22.3769 19.7436 22.1939 20.0403C22.2808 20.1679 22.3463 20.3309 22.3682 20.5198C22.3899 20.7071 22.3637 20.8793 22.3091 21.0227C22.3418 21.0435 22.3714 21.07 22.3938 21.1048C22.4488 21.1898 22.4468 21.292 22.4048 21.3765L22.5543 21.6078ZM24.2021 8.83759H23.9254C23.8109 8.83759 23.718 8.93046 23.718 9.04501V9.11415H23.6489C23.5343 9.11415 23.4415 9.20702 23.4415 9.32157V9.59823C23.4415 9.71278 23.5343 9.80565 23.6489 9.80565H23.718V10.9813C23.718 11.0959 23.8109 11.1888 23.9254 11.1888H24.2021C24.3167 11.1888 24.4095 11.0959 24.4095 10.9813V10.7739L24.6308 10.9398L24.8028 11.0688L24.3085 13.5401H23.8398C23.74 12.9139 23.1961 12.4337 22.5421 12.4337C22.5192 12.4337 22.4962 12.4345 22.473 12.4358V12.0879C22.473 11.5159 22.0076 11.0505 21.4356 11.0505C20.8636 11.0505 20.3982 11.5159 20.3982 12.0879V13.4711V13.7477V16.9292C20.3233 16.7226 20.2015 16.5498 20.0489 16.4411C20.0126 16.4152 19.9705 16.4026 19.9288 16.4026C19.871 16.4026 19.8138 16.4266 19.7731 16.4728C19.7092 16.5454 19.6567 16.6337 19.6175 16.7333C19.5267 16.6841 19.4333 16.6509 19.3411 16.636C19.3299 16.6342 19.3189 16.6333 19.308 16.6333C19.2157 16.6333 19.1327 16.695 19.1079 16.7867C19.0836 16.8767 19.0754 16.9756 19.0831 17.0786C19.0668 17.0778 19.0505 17.0774 19.0344 17.0774C18.9446 17.0774 18.8595 17.0896 18.7817 17.1137C18.6802 17.145 18.6188 17.2479 18.6393 17.3521C18.693 17.6232 18.9016 17.8906 19.1975 18.0671C19.334 18.1485 19.4823 18.2044 19.6328 18.2316C19.6388 18.2431 19.6454 18.2542 19.6524 18.265C19.7205 18.3704 19.8273 18.4429 19.9495 18.4699L20.1006 18.7038C20.0956 18.7037 20.0906 18.7037 20.0856 18.7037C19.9958 18.7037 19.9107 18.7159 19.8329 18.7399C19.7314 18.7713 19.67 18.8742 19.6905 18.9784C19.7442 19.2495 19.9528 19.5169 20.2487 19.6933C20.296 19.7216 20.3452 19.7466 20.3983 19.7691V23.1527C20.3983 23.2367 20.449 23.3124 20.5265 23.3444C20.5522 23.355 20.5791 23.3601 20.6057 23.3601C20.6598 23.3601 20.7129 23.339 20.7527 23.2991C20.7809 23.2709 21.4316 22.6114 21.6012 21.8461C21.671 21.7544 21.7354 21.6619 21.794 21.5693C21.8608 21.6465 21.9511 21.6997 22.0521 21.7222L22.0611 21.7359L21.8972 21.867C21.8543 21.9014 21.8266 21.9514 21.8206 22.0061C21.8144 22.0607 21.8303 22.1157 21.8647 22.1587L22.5556 23.023C22.59 23.066 22.64 23.0936 22.6948 23.0997C22.7024 23.1006 22.7101 23.101 22.7177 23.101C22.7646 23.101 22.8103 23.0851 22.8472 23.0556L22.8914 23.0203L23.0727 23.3009C23.1026 23.3471 23.1496 23.3796 23.2034 23.3911C23.2178 23.3942 23.2324 23.3957 23.2469 23.3957C23.2866 23.3957 23.3258 23.3844 23.3595 23.3624L23.4937 23.2757L23.4633 23.3365C23.4176 23.4278 23.4453 23.5388 23.5283 23.5981L25.4647 24.9813C25.5008 25.0071 25.543 25.02 25.5853 25.02C25.6276 25.02 25.6698 25.0071 25.7059 24.9813L27.6423 23.5981C27.7254 23.5388 27.753 23.4279 27.7073 23.3365L26.4771 20.8761C26.5293 20.8515 26.5836 20.827 26.6406 20.8025L27.1883 21.4747C27.2294 21.525 27.2891 21.5511 27.3494 21.5511C27.3955 21.5511 27.4418 21.5357 27.4803 21.5044L27.5341 21.4606L28.023 22.0602L27.8923 22.2237C27.858 22.2667 27.8421 22.3216 27.8482 22.3763C27.8543 22.431 27.8819 22.481 27.9249 22.5154L27.9475 22.5335L27.702 22.9367C27.6424 23.0346 27.6735 23.1621 27.7713 23.2218L28.1257 23.4376C28.1585 23.4575 28.1959 23.4679 28.2337 23.4679C28.2501 23.4679 28.2667 23.4659 28.2828 23.4619C28.3362 23.4488 28.3824 23.4152 28.411 23.3681L28.6011 23.0557C28.6393 23.0859 28.6846 23.1006 28.7298 23.1006C28.7907 23.1006 28.851 23.0738 28.892 23.0226L29.583 22.1583C29.6084 22.1265 29.6229 22.0894 29.6271 22.0518C29.8525 22.726 30.3925 23.2731 30.4181 23.2988C30.4578 23.3386 30.511 23.3598 30.5651 23.3598C30.5918 23.3598 30.6186 23.3547 30.6443 23.3441C30.7218 23.312 30.7725 23.2364 30.7725 23.1524V19.4887L31.3523 18.5363C31.3665 18.5392 31.3806 18.5407 31.3948 18.5407C31.4648 18.5407 31.5332 18.5053 31.5722 18.441L32.4021 17.0775C32.4308 17.0306 32.4395 16.9741 32.4264 16.9206C32.4133 16.8672 32.3796 16.821 32.3327 16.7924L32.0373 16.6126L31.8601 16.5047L31.7418 16.4327C31.7082 16.4122 31.6709 16.4025 31.6342 16.4025C31.5642 16.4025 31.4959 16.438 31.4569 16.5022L30.7726 17.6265V13.7471V13.4704V12.0877C30.7726 11.5157 30.3072 11.0503 29.7352 11.0503C29.1632 11.0503 28.6978 11.5157 28.6978 12.0877V12.4356C28.6747 12.4343 28.6516 12.4335 28.6287 12.4335C27.9747 12.4335 27.4308 12.9137 27.331 13.5399H27.1526C27.0872 12.9953 26.8997 11.3746 26.8997 10.7045C26.8997 9.73573 26.2209 9.39052 25.5857 9.39052C25.1153 9.39052 24.8118 9.56981 24.6816 9.66718H24.6748C24.6824 9.6455 24.6866 9.62225 24.6866 9.59803V9.32138C24.6866 9.20682 24.5937 9.11395 24.4792 9.11395H24.41V9.04481C24.4095 8.93046 24.3167 8.83759 24.2021 8.83759ZM22.4353 20.04C22.4884 19.9466 22.5347 19.8544 22.5746 19.7636C22.7475 19.9957 22.9963 20.1607 23.2612 20.2914L23.0795 20.5143C23.0448 20.557 23.0284 20.6117 23.0339 20.6665C23.0395 20.7213 23.0666 20.7716 23.1092 20.8062L23.1626 20.8498L22.7929 21.3031C22.7718 21.2928 22.7489 21.2861 22.7251 21.2834C22.7174 21.2825 22.7096 21.2821 22.7021 21.2821C22.6814 21.2821 22.6611 21.2852 22.6415 21.2912C22.6509 21.1869 22.6262 21.0822 22.5681 20.9922C22.5611 20.9813 22.5536 20.9707 22.5457 20.9605C22.5826 20.8122 22.5925 20.6541 22.5744 20.4961C22.5556 20.3339 22.5081 20.1786 22.4353 20.04ZM28.1022 20.1888C28.2849 20.0822 28.4624 19.9473 28.5969 19.7659C28.7029 20.0078 28.8421 20.2278 28.974 20.4074C28.9756 20.5229 28.9915 20.6419 29.0219 20.7682L28.707 21.2856C28.6888 21.289 28.6709 21.2948 28.654 21.3031L28.2843 20.8498L28.3376 20.8062C28.3803 20.7715 28.4074 20.7212 28.4129 20.6665C28.4185 20.6118 28.4022 20.557 28.3673 20.5143L28.1022 20.1888ZM24.098 21.5516C24.1583 21.5516 24.2179 21.5256 24.259 21.4753L24.6089 21.046L23.662 22.9399C23.6594 22.9351 23.6566 22.9305 23.6536 22.9258L23.4344 22.5866L23.5228 22.5159C23.5658 22.4815 23.5934 22.4315 23.5995 22.3767C23.6056 22.3222 23.5897 22.2672 23.5553 22.2243L23.4247 22.0608L23.9135 21.4611L23.9673 21.5049C24.0055 21.5365 24.0519 21.5516 24.098 21.5516ZM29.3982 21.7463L29.4433 21.6721C29.483 21.7305 29.525 21.7887 29.5691 21.8467C29.573 21.8641 29.5771 21.8814 29.5815 21.8988C29.5723 21.8875 29.5618 21.877 29.55 21.8676L29.3982 21.7463Z" fill="#FFAA5A"/>
</svg>
